<?xml version="1.0" encoding="UTF-8" standalone="no"?><!DOCTYPE svg PUBLIC "-//W3C//DTD SVG 1.1//EN" "http://www.w3.org/Graphics/SVG/1.1/DTD/svg11.dtd"><svg width="100%" height="100%" viewBox="0 0 1080 1080" version="1.1" xmlns="http://www.w3.org/2000/svg" xmlns:xlink="http://www.w3.org/1999/xlink" xml:space="preserve" xmlns:serif="http://www.serif.com/" style="fill-rule:evenodd;clip-rule:evenodd;stroke-linejoin:round;stroke-miterlimit:2;"><rect id="Mesa-de-trabajo1" serif:id="Mesa de trabajo1" x="0" y="0" width="1080" height="1080" style="fill:none;"/><path d="M854.978,803.201c186.237,0 186.237,-526.402 -0,-526.402c-7.982,-0.001 -15.637,-3.172 -21.281,-8.816c-5.644,-5.644 -8.815,-13.299 -8.815,-21.281c0,-22.617 0,-56.334 0,-95.413c0,-60.864 -36.663,-115.734 -92.894,-139.026c-56.231,-23.292 -120.956,-10.417 -163.993,32.62c-181.752,181.752 -404.913,404.913 -473.836,473.836c-5.644,5.644 -8.815,13.299 -8.815,21.281c0,7.982 3.171,15.637 8.815,21.281c68.923,68.923 292.084,292.084 473.836,473.836c43.037,43.037 107.762,55.912 163.993,32.62c56.231,-23.292 92.894,-78.162 92.894,-139.026c0,-39.079 0,-72.796 0,-95.413c-0,-7.982 3.171,-15.637 8.815,-21.281c5.644,-5.644 13.299,-8.815 21.281,-8.816Z" style="fill:#9e0004;"/></svg>