<?xml version="1.0" encoding="UTF-8" standalone="no"?><!DOCTYPE svg PUBLIC "-//W3C//DTD SVG 1.1//EN" "http://www.w3.org/Graphics/SVG/1.1/DTD/svg11.dtd">
<svg width="100%" height="100%" viewBox="0 0 1080 1080" version="1.1"
	xmlns="http://www.w3.org/2000/svg"
	xmlns:xlink="http://www.w3.org/1999/xlink" xml:space="preserve"
	xmlns:serif="http://www.serif.com/" style="fill-rule:evenodd;clip-rule:evenodd;stroke-linejoin:round;stroke-miterlimit:2;">
	<rect id="Mesa-de-trabajo1" serif:id="Mesa de trabajo1" x="0" y="0" width="1080" height="1080" style="fill:none;"/>
	<g>
		<path d="M451.954,532.535l-0,-12.542c-0,-10.561 7.776,-19.509 18.234,-20.982c7.813,-1.084 13.702,-3.008 17.67,-5.755c6.621,-4.584 9.932,-12.478 9.932,-23.682l-0,-408.42c-0,-3.326 -1.322,-6.516 -3.674,-8.868c-2.352,-2.352 -5.541,-3.673 -8.868,-3.673c-28.248,-0 -94.409,-0 -94.409,-0c-8.141,-0 -21.203,6.426 -33.834,15.266c-6.101,4.208 -14.086,4.503 -20.481,0.757c-6.395,-3.746 -10.043,-10.856 -9.356,-18.235c-0.043,-0.006 -0.043,-0.007 -0.043,-0.008c2.339,-25.13 23.427,-44.347 48.665,-44.347l322.133,0c25.134,0 46.15,19.105 48.539,44.125c-0,0.001 -0,0.001 0,0.002c0.688,7.214 -2.815,14.185 -9.015,17.936c-6.2,3.752 -14,3.622 -20.072,-0.335c-13.269,-8.798 -27.341,-15.161 -36.241,-15.161l-94.41,-0c-3.326,-0 -6.516,1.321 -8.868,3.673c-2.352,2.352 -3.673,5.542 -3.673,8.868c-0,69.915 -0,408.42 -0,408.42c-0,11.204 3.31,19.098 9.931,23.682c3.968,2.747 9.858,4.671 17.669,5.772c10.448,1.471 18.219,10.413 18.219,20.965c0.017,6.713 0.017,12.542 0.017,12.542l-168.065,-0Z" style="fill:#5c0002;fill-rule:nonzero;"/>
		<path d="M537.784,507.938c71.046,-0 132.097,25.337 183.154,76.011c51.056,50.674 76.584,110.898 76.584,180.67c-0,69.773 -25.528,130.761 -76.584,182.963c-51.057,52.202 -107.015,78.303 -167.875,78.303c33.613,-0 47.451,-0.183 74.952,4.91c27.502,5.093 41.978,13.564 85.082,17.713c31.63,3.045 62.317,0.294 83.004,-2.669c1.846,-0.291 3.624,0.825 4.164,2.614c0.54,1.789 -0.323,3.702 -2.021,4.481c-23.476,10.353 -61.527,23.971 -101.148,24.901c-41.312,0.969 -63.873,-3.999 -98.197,-13.753c-27.885,-7.925 -56.022,-13.751 -85.561,-13.751c-19.57,-0 -60.156,7.377 -85.319,12.357c-1.814,0.333 -3.602,-0.7 -4.219,-2.438c-0.617,-1.738 0.119,-3.667 1.737,-4.552c22.417,-12.172 61,-29.813 96.969,-29.813c-62.643,-0 -118.792,-26.101 -168.448,-78.303c-49.656,-52.202 -74.483,-113.19 -74.483,-182.963c-0,-72.064 24.827,-132.86 74.483,-182.389c49.656,-49.528 110.898,-74.292 183.726,-74.292Zm-15.278,38.196c-45.836,5.093 -86.07,28.266 -120.702,69.518c-31.067,36.924 -46.6,85.434 -46.6,145.53c0,7.13 0.255,14.387 0.764,21.772c5.093,56.022 25.21,103.895 60.351,143.619c35.141,39.725 80.722,60.097 136.744,61.115c55.003,-4.074 97.274,-25.974 126.813,-65.698c27.756,-37.178 41.634,-88.998 41.634,-155.461c0,-4.583 -0.127,-9.294 -0.382,-14.133c-5.092,-57.04 -25.973,-106.186 -62.642,-147.439c-34.886,-39.215 -77.667,-58.823 -128.341,-58.823l-7.639,0Z" style="fill:#5c0002;fill-rule:nonzero;"/>
		<ellipse cx="559.015" cy="783.317" rx="221.359" ry="218.353" style="fill:#5c0002;"/>
	</g>
</svg>
