<?xml version="1.0" encoding="UTF-8" standalone="no"?><!DOCTYPE svg PUBLIC "-//W3C//DTD SVG 1.1//EN" "http://www.w3.org/Graphics/SVG/1.1/DTD/svg11.dtd"><svg width="100%" height="100%" viewBox="0 0 1080 1080" version="1.1" xmlns="http://www.w3.org/2000/svg" xmlns:xlink="http://www.w3.org/1999/xlink" xml:space="preserve" xmlns:serif="http://www.serif.com/" style="fill-rule:evenodd;clip-rule:evenodd;stroke-linejoin:round;stroke-miterlimit:2;"><rect id="Artboard20" x="0" y="0" width="1080" height="1080" style="fill:none;"/><path d="M793.69,519.319c60.788,19.404 107.359,51.83 139.714,97.277c32.354,45.447 48.532,101.361 48.532,167.744c-0,59.234 -14.952,111.064 -44.856,155.49c-29.903,44.425 -72.553,78.893 -127.948,103.404c-55.395,24.511 -120.349,36.766 -194.863,36.766l-391.198,-0c-40.198,-0 -71.082,-11.234 -92.652,-33.702c-21.57,-22.468 -32.355,-54.638 -32.355,-96.511l0,-819.574c0,-41.873 10.785,-74.043 32.355,-96.511c21.57,-22.468 52.454,-33.702 92.652,-33.702l376.491,0c108.83,0 195.354,25.277 259.573,75.83c64.219,50.553 96.329,118.723 96.329,204.51c-0,55.149 -14.217,103.915 -42.65,146.298c-28.432,42.383 -68.141,73.277 -119.124,92.681Zm-432.376,-94.979l192.657,0c50.984,0 88.24,-8.17 111.771,-24.51c23.531,-16.341 35.296,-42.383 35.296,-78.128c0,-37.787 -11.765,-65.362 -35.296,-82.723c-23.531,-17.362 -60.787,-26.043 -111.771,-26.043l-192.657,0l-0,211.404Zm219.129,442.724c53.925,-0 92.407,-8.936 115.448,-26.809c23.04,-17.872 34.561,-47.234 34.561,-88.085c-0,-40.851 -11.521,-70.213 -34.561,-88.085c-23.041,-17.872 -61.523,-26.808 -115.448,-26.808l-219.129,-0l-0,229.787l219.129,-0Z" style="fill-rule:nonzero;"/></svg>