<?xml version="1.0" encoding="UTF-8" standalone="no"?><!DOCTYPE svg PUBLIC "-//W3C//DTD SVG 1.1//EN" "http://www.w3.org/Graphics/SVG/1.1/DTD/svg11.dtd">
<svg width="100%" height="100%" viewBox="0 0 1080 1080" version="1.1"
    xmlns="http://www.w3.org/2000/svg"
    xmlns:xlink="http://www.w3.org/1999/xlink" xml:space="preserve"
    xmlns:serif="http://www.serif.com/" style="fill-rule:evenodd;clip-rule:evenodd;stroke-linejoin:round;stroke-miterlimit:2;">
    <rect id="Artboard20" x="0" y="0" width="1080" height="1080" style="fill:none;"/>
    <clipPath id="_clip1">
        <rect x="0" y="0" width="1080" height="1080"/>
    </clipPath>
    <g clip-path="url(#_clip1)">
        <g id="c">
            <path d="M539.379,929.964c-126.653,0 -222.885,-33.629 -288.696,-100.886c-65.81,-67.258 -98.715,-165.557 -98.715,-294.898l0,-417.773c0,-35.353 10.141,-63.593 30.422,-84.718c20.281,-21.126 47.391,-31.689 81.331,-31.689c33.94,0 61.051,10.563 81.332,31.689c20.281,21.125 30.421,49.365 30.421,84.718l0,426.827c0,65.532 14.073,115.976 42.218,151.329c28.146,35.353 68.708,53.03 121.687,53.03c52.979,-0 93.542,-17.677 121.687,-53.03c28.145,-35.353 42.218,-85.797 42.218,-151.329l-0,-426.827c-0,-35.353 10.14,-63.593 30.422,-84.718c20.281,-21.126 47.391,-31.689 81.331,-31.689c33.94,-0 61.257,10.563 81.952,31.689c20.695,21.125 31.043,49.365 31.043,84.718l-0,417.773c-0,128.479 -33.319,226.563 -99.957,294.251c-66.638,67.689 -162.87,101.533 -288.696,101.533Z" style="fill-rule:nonzero;fill:rgb(125, 125, 125);"/>
            <path d="M77.466,1009.13c0,-11.045 8.954,-20 20,-20c121.853,0 763.215,0 885.068,0c11.046,0 20,8.955 20,20c-0,15.112 -0,35.763 -0,50.875c-0,11.046 -8.954,20 -20,20c-121.853,0 -763.215,0 -885.068,0c-11.046,-0 -20,-8.954 -20,-20c0,-15.112 0,-35.763 0,-50.875Z" style="fill-rule:nonzero;fill:rgb(125, 125, 125);"/>
        </g>
    </g>
</svg>