<?xml version="1.0" encoding="UTF-8" standalone="no"?><!DOCTYPE svg PUBLIC "-//W3C//DTD SVG 1.1//EN" "http://www.w3.org/Graphics/SVG/1.1/DTD/svg11.dtd"><svg width="100%" height="100%" viewBox="0 0 1080 1080" version="1.1" xmlns="http://www.w3.org/2000/svg" xmlns:xlink="http://www.w3.org/1999/xlink" xml:space="preserve" xmlns:serif="http://www.serif.com/" style="fill-rule:evenodd;clip-rule:evenodd;stroke-linejoin:round;stroke-miterlimit:2;"><rect id="Artboard20" x="0" y="0" width="1080" height="1080" style="fill:none;"/><clipPath id="_clip1"><rect x="0" y="0" width="1080" height="1080"/></clipPath><g clip-path="url(#_clip1)"><g id="c"><path d="M538.566,1080c-76.483,-0 -147.469,-8.714 -212.957,-26.141c-65.489,-17.427 -119.266,-41.577 -161.331,-72.448c-16.253,-12.946 -27.964,-26.39 -35.135,-40.332c-7.17,-13.942 -10.755,-31.867 -10.755,-53.776c0,-29.876 8.604,-55.768 25.813,-77.676c17.209,-21.909 37.285,-32.864 60.23,-32.864c12.429,0 24.379,1.992 35.852,5.976c11.472,3.983 25.813,11.452 43.021,22.406c39.198,22.905 78.156,39.336 116.876,49.295c38.719,9.958 82.458,14.938 131.216,14.938c56.406,-0 99.188,-8.714 128.348,-26.141c29.159,-17.428 43.738,-43.071 43.738,-76.93c0,-22.905 -13.623,-42.573 -40.87,-59.004c-27.247,-16.432 -79.112,-32.614 -155.595,-48.548c-94.648,-20.913 -168.741,-45.809 -222.279,-74.689c-53.538,-28.879 -91.062,-62.987 -112.573,-102.323c-21.511,-39.336 -32.266,-86.888 -32.266,-142.656c-0,-63.734 18.165,-121.494 54.494,-173.278c36.329,-51.784 86.282,-92.365 149.859,-121.743c63.576,-29.377 135.04,-44.066 214.391,-44.066c69.79,-0 131.933,7.967 186.427,23.9c54.494,15.934 104.208,40.83 149.141,74.689c17.209,12.946 29.398,26.639 36.569,41.079c7.17,14.44 10.755,32.116 10.755,53.029c0,29.876 -8.365,55.768 -25.096,77.676c-16.73,21.909 -36.568,32.864 -59.513,32.864c-12.428,-0 -23.901,-1.743 -34.417,-5.229c-10.517,-3.485 -25.335,-11.203 -44.456,-23.153c-4.78,-2.988 -18.404,-10.706 -40.871,-23.154c-22.466,-12.448 -48.757,-22.406 -78.873,-29.875c-30.115,-7.469 -62.859,-11.204 -98.232,-11.204c-48.758,0 -87.956,9.71 -117.593,29.129c-29.637,19.419 -44.455,45.062 -44.455,76.929c-0,18.922 5.258,34.357 15.774,46.308c10.517,11.95 30.115,23.651 58.796,35.103c28.682,11.453 71.225,23.154 127.631,35.104c91.78,20.913 163.96,46.058 216.542,75.436c52.582,29.377 89.868,63.485 111.857,102.323c21.989,38.839 32.983,84.648 32.983,137.428c-0,65.726 -17.687,123.734 -53.06,174.025c-35.373,50.29 -84.848,89.128 -148.425,116.514c-63.576,27.386 -137.43,41.079 -221.561,41.079Z" style="fill-rule:nonzero;"/><path d="M66.762,515c0,-11.046 8.954,-20 20,-20l912.212,-0c11.046,0 20,8.954 20,20l0,50c0,11.046 -8.954,20 -20,20l-912.212,-0c-11.046,-0 -20,-8.954 -20,-20l0,-50Z" style="fill-rule:nonzero;"/></g></g></svg>