<svg xmlns="http://www.w3.org/2000/svg" xmlns:xlink="http://www.w3.org/1999/xlink" width="62" height="38" viewBox="0 0 62 38">
  <defs>
    <clipPath id="clip-path">
      <rect id="Rectangle_102" data-name="Rectangle 102" width="62" height="38" rx="6" transform="translate(150 6489)" fill="#fff"/>
    </clipPath>
  </defs>
  <g id="flag" transform="translate(-150 -6489)" clip-path="url(#clip-path)">
    <g id="_1F1EA-1F1E6" data-name="1F1EA-1F1E6" transform="translate(145 6472)">
      <g id="color">
        <rect id="Rectangle_97" data-name="Rectangle 97" width="62" height="38" transform="translate(5 17)" fill="#f1b31c"/>
        <path id="Path_1041" data-name="Path 1041" d="M23,33v7a2.006,2.006,0,0,1-2,2H17a2.006,2.006,0,0,1-2-2V33" fill="#d22f27"/>
        <rect id="Rectangle_98" data-name="Rectangle 98" width="62" height="9" transform="translate(5 17)" fill="#d22f27"/>
        <rect id="Rectangle_99" data-name="Rectangle 99" width="62" height="9" transform="translate(5 46)" fill="#d22f27"/>
        <rect id="Rectangle_100" data-name="Rectangle 100" width="4" height="4" transform="translate(19 33)" fill="#f1b31c"/>
        <circle id="Ellipse_44" data-name="Ellipse 44" cx="1.5" cy="1.5" r="1.5" transform="translate(17.5 35.5)" fill="#6a462f"/>
        <g id="Group_81" data-name="Group 81">
          <line id="Line_5" data-name="Line 5" y2="9" transform="translate(27 33)" fill="none" stroke="#6a462f" stroke-linecap="round" stroke-linejoin="round" stroke-width="2"/>
          <line id="Line_6" data-name="Line 6" y2="9" transform="translate(11 33)" fill="none" stroke="#6a462f" stroke-linecap="round" stroke-linejoin="round" stroke-width="2"/>
          <path id="Path_1042" data-name="Path 1042" d="M15,30a8.568,8.568,0,0,1,4-1" fill="none" stroke="#6a462f" stroke-linecap="round" stroke-linejoin="round" stroke-width="2"/>
          <path id="Path_1043" data-name="Path 1043" d="M23,30a8.568,8.568,0,0,0-4-1" fill="none" stroke="#6a462f" stroke-linecap="round" stroke-linejoin="round" stroke-width="2"/>
          <line id="Line_7" data-name="Line 7" x2="8" transform="translate(15 33)" fill="none" stroke="#6a462f" stroke-linecap="round" stroke-linejoin="round" stroke-width="2"/>
          <path id="Path_1044" data-name="Path 1044" d="M23,33v7a2.006,2.006,0,0,1-2,2H17a2.006,2.006,0,0,1-2-2V33" fill="none" stroke="#6a462f" stroke-linecap="round" stroke-linejoin="round" stroke-width="2"/>
          <line id="Line_8" data-name="Line 8" x2="2" transform="translate(10 42)" fill="none" stroke="#6a462f" stroke-linecap="round" stroke-linejoin="round" stroke-width="2"/>
          <line id="Line_9" data-name="Line 9" x2="2" transform="translate(26 42)" fill="none" stroke="#6a462f" stroke-linecap="round" stroke-linejoin="round" stroke-width="2"/>
        </g>
      </g>
    </g>
  </g>
</svg>
