<?xml version="1.0" encoding="UTF-8" standalone="no"?><!DOCTYPE svg PUBLIC "-//W3C//DTD SVG 1.1//EN" "http://www.w3.org/Graphics/SVG/1.1/DTD/svg11.dtd"><svg width="100%" height="100%" viewBox="0 0 1080 1080" version="1.1" xmlns="http://www.w3.org/2000/svg" xmlns:xlink="http://www.w3.org/1999/xlink" xml:space="preserve" xmlns:serif="http://www.serif.com/" style="fill-rule:evenodd;clip-rule:evenodd;stroke-linejoin:round;stroke-miterlimit:2;"><rect id="Artboard18" x="0" y="0" width="1080" height="1080" style="fill:none;"/><clipPath id="_clip1"><rect x="0" y="0" width="1080" height="1080"/></clipPath><g clip-path="url(#_clip1)"><g id="Menu"><g id="TQ"><path d="M582.521,532.506l-0,-12.589c0,-10.601 7.806,-19.583 18.304,-21.062c7.842,-1.088 13.754,-3.019 17.737,-5.777c6.646,-4.601 9.969,-12.525 9.969,-23.772l0,-409.974c0,-3.338 -1.326,-6.54 -3.687,-8.901c-2.361,-2.361 -5.563,-3.687 -8.901,-3.687c-28.356,-0 -94.769,-0 -94.769,-0c-8.172,-0 -21.283,6.45 -33.962,15.324c-6.125,4.224 -14.14,4.52 -20.559,0.76c-6.42,-3.761 -10.081,-10.897 -9.392,-18.305c-0.043,-0.005 -0.043,-0.006 -0.043,-0.008c2.347,-25.225 23.515,-44.515 48.85,-44.515l323.358,-0c25.229,0 46.325,19.178 48.723,44.293c0.001,0.001 0.001,0.001 0.001,0.002c0.691,7.241 -2.826,14.238 -9.05,18.004c-6.223,3.766 -14.053,3.635 -20.148,-0.336c-13.32,-8.832 -27.445,-15.219 -36.379,-15.219l-94.769,-0c-3.339,-0 -6.541,1.326 -8.901,3.687c-2.361,2.361 -3.688,5.563 -3.688,8.901c0,70.181 0,409.974 0,409.974c0,11.247 3.323,19.171 9.969,23.772c3.984,2.758 9.896,4.689 17.736,5.794c10.489,1.477 18.288,10.453 18.288,21.045c0.018,6.738 0.018,12.589 0.018,12.589l-168.705,0Z" style="fill:#5c0002;fill-rule:nonzero;"/><path d="M668.678,507.816c71.316,-0 132.6,25.433 183.85,76.3c51.251,50.867 76.876,111.32 76.876,181.358c-0,70.038 -25.625,131.257 -76.876,183.658c-51.25,52.401 -107.421,78.601 -168.513,78.601c33.741,0 47.631,-0.183 75.237,4.929c27.607,5.112 42.137,13.615 85.406,17.78c31.75,3.057 62.554,0.295 83.32,-2.68c1.853,-0.292 3.637,0.829 4.18,2.625c0.542,1.795 -0.325,3.716 -2.03,4.498c-23.564,10.392 -61.76,24.062 -101.532,24.995c-41.47,0.973 -64.116,-4.014 -98.571,-13.805c-27.991,-7.954 -56.235,-13.803 -85.886,-13.803c-19.645,-0 -60.385,7.405 -85.644,12.404c-1.82,0.334 -3.615,-0.702 -4.234,-2.447c-0.62,-1.745 0.119,-3.681 1.743,-4.57c22.502,-12.218 61.232,-29.926 97.337,-29.926c-62.88,0 -119.243,-26.2 -169.088,-78.601c-49.844,-52.401 -74.767,-113.62 -74.767,-183.658c0,-72.339 24.923,-133.366 74.767,-183.083c49.845,-49.717 111.32,-74.575 184.425,-74.575Zm-15.337,38.342c-46.01,5.112 -86.397,28.373 -121.16,69.782c-31.185,37.064 -46.778,85.758 -46.778,146.083c0,7.157 0.256,14.442 0.767,21.855c5.113,56.235 25.306,104.29 60.581,144.166c35.274,39.876 81.029,60.325 137.264,61.347c55.212,-4.09 97.644,-26.073 127.295,-65.948c27.862,-37.32 41.793,-89.337 41.793,-156.052c0,-4.601 -0.128,-9.33 -0.383,-14.187c-5.112,-57.257 -26.073,-106.59 -62.881,-148c-35.019,-39.364 -77.962,-59.046 -128.829,-59.046l-7.669,-0Z" style="fill:#5c0002;fill-rule:nonzero;"/><ellipse cx="689.99" cy="784.242" rx="222.201" ry="219.183" style="fill:#5c0002;"/></g><path id="arrow" d="M369.271,428.352c53.62,0 53.62,-151.559 -0,-151.559c-2.298,-0 -4.502,-0.913 -6.127,-2.538c-1.625,-1.625 -2.538,-3.829 -2.538,-6.127c-0,-6.512 -0,-16.22 -0,-27.471c-0,-17.524 -10.556,-33.322 -26.746,-40.028c-16.19,-6.706 -34.825,-2.999 -47.216,9.392c-52.329,52.329 -116.58,116.581 -136.424,136.425c-1.625,1.625 -2.538,3.829 -2.538,6.127c-0,2.298 0.913,4.502 2.538,6.127c19.844,19.844 84.095,84.095 136.424,136.425c12.391,12.391 31.026,16.097 47.216,9.391c16.19,-6.706 26.746,-22.504 26.746,-40.027c-0,-11.252 -0,-20.959 -0,-27.471c-0,-2.298 0.913,-4.502 2.538,-6.127c1.625,-1.626 3.829,-2.538 6.127,-2.539Z" style="fill:#9e0004;"/></g></g></svg>