<?xml version="1.0" encoding="UTF-8" standalone="no"?><!DOCTYPE svg PUBLIC "-//W3C//DTD SVG 1.1//EN" "http://www.w3.org/Graphics/SVG/1.1/DTD/svg11.dtd"><svg width="100%" height="100%" viewBox="0 0 1080 1080" version="1.1" xmlns="http://www.w3.org/2000/svg" xmlns:xlink="http://www.w3.org/1999/xlink" xml:space="preserve" xmlns:serif="http://www.serif.com/" style="fill-rule:evenodd;clip-rule:evenodd;stroke-linejoin:round;stroke-miterlimit:2;"><rect id="Artboard10" x="0" y="0" width="1080" height="1080" style="fill:none;"/><g><path d="M148.62,1024.35l654.112,17.819c3.854,0 6.983,3.129 6.983,6.983c-0,3.854 -3.129,6.983 -6.983,6.983l-684.909,18.659c-7.583,-0 -14.776,-3.356 -19.648,-9.166c-4.872,-5.81 -6.923,-13.478 -5.601,-20.945c19.176,-120.958 28.457,-238.29 32.117,-351.88c1.651,-51.237 2.111,-101.698 1.73,-151.413c-0.528,-68.779 -2.843,-136.103 -6.718,-201.986c-6.155,-104.645 -15.73,-205.624 -28.295,-302.692c-1.235,-8.421 1.62,-16.925 7.684,-22.896c6.064,-5.971 14.611,-8.693 23.011,-7.328c122.159,23.153 234.065,32.738 337.94,34.918c124.447,2.613 237.156,-5.379 341.802,-15.492c3.822,-0.49 7.323,2.216 7.813,6.039c0.49,3.822 -2.216,7.323 -6.039,7.813c-104.768,16.74 -217.772,32.393 -343.305,36.958c-95.831,3.484 -198.698,0.298 -310.483,-12.928c13.745,87.27 25.749,177.636 33.408,271.137c5.498,67.107 8.906,135.801 9.396,205.971c0.356,50.827 -0.904,102.435 -3.891,154.758c-6.087,106.644 -19.319,216.211 -40.124,328.688Z" style="fill:#fff;"/><path d="M908.05,723.186c129.693,-0.968 129.693,-367.548 0,-366.579c-5.559,0.041 -10.889,-2.127 -14.82,-6.029c-3.93,-3.901 -6.138,-9.215 -6.138,-14.774c-0,-15.75 -0,-39.23 -0,-66.444c-0,-42.385 -25.532,-80.405 -64.691,-96.333c-39.158,-15.927 -84.231,-6.625 -114.202,23.569c-126.569,127.514 -281.975,284.081 -329.972,332.436c-3.931,3.96 -6.139,9.307 -6.139,14.866c-0,5.558 2.208,10.873 6.139,14.774c47.997,47.639 203.403,201.885 329.972,327.509c29.971,29.747 75.044,38.376 114.202,21.864c39.159,-16.513 64.691,-54.915 64.691,-97.299c-0,-27.214 -0,-50.694 -0,-66.444c-0,-5.559 2.208,-10.906 6.138,-14.866c3.931,-3.96 9.261,-6.208 14.82,-6.25Z" style="fill:#fff;"/></g></svg>