<?xml version="1.0" encoding="UTF-8" standalone="no"?><!DOCTYPE svg PUBLIC "-//W3C//DTD SVG 1.1//EN" "http://www.w3.org/Graphics/SVG/1.1/DTD/svg11.dtd"><svg width="100%" height="100%" viewBox="0 0 1080 1080" version="1.1" xmlns="http://www.w3.org/2000/svg" xmlns:xlink="http://www.w3.org/1999/xlink" xml:space="preserve" xmlns:serif="http://www.serif.com/" style="fill-rule:evenodd;clip-rule:evenodd;stroke-linejoin:round;stroke-miterlimit:2;"><rect id="Artboard20" x="0" y="0" width="1080" height="1080" style="fill:none;"/><clipPath id="_clip1"><rect x="0" y="0" width="1080" height="1080"/></clipPath><g clip-path="url(#_clip1)"><g><path d="M428.095,305.717c0.003,-7.334 -3.079,-14.33 -8.492,-19.278c-5.413,-4.948 -12.657,-7.391 -19.961,-6.733c-58.925,6.732 -114.264,33.063 -156.594,75.393c-102.131,102.131 -102.131,267.965 -0,370.096c42.33,42.33 97.669,68.661 156.62,75.101c7.223,0.652 14.387,-1.764 19.74,-6.656c5.354,-4.893 8.403,-11.81 8.403,-19.063c0.284,-13.622 0.284,-29.956 0.284,-43.092c-0.006,-13.229 -9.907,-24.362 -23.044,-25.914c-35.907,-4.632 -69.417,-21.167 -95.315,-47.065c-65.324,-65.324 -65.324,-171.394 0,-236.718c25.898,-25.898 59.408,-42.433 95.272,-47.427c12.952,-1.53 22.71,-12.51 22.71,-25.552c0.377,-13.135 0.377,-29.47 0.377,-43.092Z" style="fill:#fff;"/><path d="M657.905,305.717c-0.003,-7.334 3.079,-14.33 8.492,-19.278c5.413,-4.948 12.657,-7.391 19.961,-6.733c58.925,6.732 114.264,33.063 156.594,75.393c102.131,102.131 102.131,267.965 0,370.096c-42.33,42.33 -97.669,68.661 -156.62,75.101c-7.223,0.652 -14.387,-1.764 -19.74,-6.656c-5.354,-4.893 -8.403,-11.81 -8.403,-19.063c-0.284,-13.622 -0.284,-29.956 -0.284,-43.092c0.006,-13.229 9.907,-24.362 23.044,-25.914c35.907,-4.632 69.417,-21.167 95.315,-47.065c65.324,-65.324 65.324,-171.394 -0,-236.718c-25.898,-25.898 -59.408,-42.433 -95.272,-47.427c-12.952,-1.53 -22.71,-12.51 -22.71,-25.552c-0.377,-13.135 -0.377,-29.47 -0.377,-43.092Z" style="fill:#fff;"/><path d="M742.271,540.147c-0,-49.105 -39.867,-88.972 -88.972,-88.972l-218.122,0c-49.105,0 -88.972,39.867 -88.972,88.972c0,49.105 39.867,88.972 88.972,88.972l218.122,-0c49.105,-0 88.972,-39.867 88.972,-88.972Z" style="fill:#fff;"/></g></g></svg>