<?xml version="1.0" encoding="UTF-8" standalone="no"?><!DOCTYPE svg PUBLIC "-//W3C//DTD SVG 1.1//EN" "http://www.w3.org/Graphics/SVG/1.1/DTD/svg11.dtd"><svg width="100%" height="100%" viewBox="0 0 1080 1080" version="1.1" xmlns="http://www.w3.org/2000/svg" xmlns:xlink="http://www.w3.org/1999/xlink" xml:space="preserve" xmlns:serif="http://www.serif.com/" style="fill-rule:evenodd;clip-rule:evenodd;stroke-linejoin:round;stroke-miterlimit:2;"><rect id="Artboard7" x="0" y="0" width="1080" height="1080" style="fill:none;"/><clipPath id="_clip1"><rect x="0" y="0" width="1080" height="1080"/></clipPath><g clip-path="url(#_clip1)"><path d="M163.289,812.422c-5.653,-5.652 512.205,-140.625 512.205,-272.422c0,-131.797 -517.858,-266.77 -512.205,-272.422c5.652,-5.653 8.828,-13.32 8.828,-21.314c-0,-22.65 -0,-56.417 -0,-95.554c-0,-60.955 36.718,-115.907 93.033,-139.234c56.314,-23.326 121.135,-10.433 164.237,32.669c182.022,182.022 405.516,405.516 474.542,474.542c5.652,5.652 8.828,13.319 8.828,21.313c0,7.994 -3.176,15.661 -8.828,21.313c-69.026,69.026 -292.52,292.52 -474.542,474.542c-43.102,43.102 -107.923,55.995 -164.237,32.669c-56.315,-23.327 -93.033,-78.279 -93.033,-139.234c-0,-39.137 -0,-72.904 -0,-95.554c-0,-7.994 -3.176,-15.661 -8.828,-21.314Z" style="fill:#fff;"/></g></svg>