<?xml version="1.0" encoding="UTF-8" standalone="no"?><!DOCTYPE svg PUBLIC "-//W3C//DTD SVG 1.1//EN" "http://www.w3.org/Graphics/SVG/1.1/DTD/svg11.dtd"><svg width="100%" height="100%" viewBox="0 0 1080 1080" version="1.1" xmlns="http://www.w3.org/2000/svg" xmlns:xlink="http://www.w3.org/1999/xlink" xml:space="preserve" xmlns:serif="http://www.serif.com/" style="fill-rule:evenodd;clip-rule:evenodd;stroke-linejoin:round;stroke-miterlimit:2;"><rect id="Artboard6" x="0" y="0" width="1080" height="1080" style="fill:none;"/><clipPath id="_clip1"><rect x="0" y="0" width="1080" height="1080"/></clipPath><g clip-path="url(#_clip1)"><path d="M224.553,803.594c-186.515,-0 -186.515,-527.188 -0,-527.188c7.993,0 15.66,-3.176 21.312,-8.828c5.653,-5.653 8.828,-13.32 8.828,-21.314c0,-22.65 0,-56.417 0,-95.554c0,-60.955 36.718,-115.907 93.033,-139.234c56.315,-23.326 121.136,-10.433 164.237,32.669c182.023,182.022 405.517,405.516 474.542,474.542c5.653,5.652 8.829,13.319 8.829,21.313c-0,7.994 -3.176,15.661 -8.829,21.313c-69.025,69.026 -292.519,292.52 -474.542,474.542c-43.101,43.102 -107.922,55.995 -164.237,32.669c-56.315,-23.327 -93.033,-78.279 -93.033,-139.234c0,-39.137 0,-72.904 0,-95.554c0,-7.994 -3.175,-15.661 -8.828,-21.314c-5.652,-5.652 -13.319,-8.828 -21.312,-8.828Z" style="fill:#fff;"/></g></svg>