<?xml version="1.0" encoding="UTF-8" standalone="no"?><!DOCTYPE svg PUBLIC "-//W3C//DTD SVG 1.1//EN" "http://www.w3.org/Graphics/SVG/1.1/DTD/svg11.dtd"><svg width="100%" height="100%" viewBox="0 0 1080 1080" version="1.1" xmlns="http://www.w3.org/2000/svg" xmlns:xlink="http://www.w3.org/1999/xlink" xml:space="preserve" xmlns:serif="http://www.serif.com/" style="fill-rule:evenodd;clip-rule:evenodd;stroke-linejoin:round;stroke-miterlimit:2;"><rect id="Artboard17" x="0" y="0" width="1080" height="1080" style="fill:none;"/><path d="M540,0c298.034,0 540,241.966 540,540c0,298.034 -241.966,540 -540,540c-298.034,0 -540,-241.966 -540,-540c0,-298.034 241.966,-540 540,-540Zm-5.168,866c-17.513,-0 -32.801,-5.67 -45.864,-17.011c-13.063,-11.34 -19.594,-27.202 -19.594,-47.586c-0,-18.087 6.316,-33.303 18.948,-45.649c12.633,-12.345 28.136,-18.518 46.51,-18.518c18.087,0 33.304,6.173 45.649,18.518c12.345,12.346 18.518,27.562 18.518,45.649c-0,20.097 -6.46,35.887 -19.379,47.371c-12.92,11.484 -27.849,17.226 -44.788,17.226Zm-210.156,-471.989c0,-27.275 8.757,-54.908 26.27,-82.9c17.513,-27.992 43.065,-51.175 76.655,-69.55c33.591,-18.374 72.779,-27.561 117.567,-27.561c41.629,0 78.378,7.68 110.245,23.04c31.868,15.359 56.487,36.246 73.856,62.659c17.37,26.413 26.055,55.123 26.055,86.129c-0,24.404 -4.953,45.792 -14.858,64.167c-9.905,18.374 -21.676,34.236 -35.313,47.586c-13.637,13.35 -38.112,35.816 -73.425,67.397c-9.761,8.9 -17.585,16.723 -23.47,23.47c-5.886,6.747 -10.264,12.919 -13.135,18.518c-2.871,5.598 -5.096,11.196 -6.675,16.795c-1.579,5.598 -3.948,15.431 -7.106,29.499c-5.455,29.858 -22.537,44.788 -51.247,44.788c-14.929,-0 -27.49,-4.881 -37.682,-14.642c-10.192,-9.762 -15.288,-24.26 -15.288,-43.496c0,-24.116 3.733,-45.002 11.197,-62.659c7.465,-17.657 17.37,-33.16 29.715,-46.51c12.345,-13.35 28.997,-29.212 49.955,-47.586c18.374,-16.078 31.653,-28.208 39.835,-36.39c8.182,-8.182 15.073,-17.298 20.671,-27.346c5.598,-10.049 8.398,-20.958 8.398,-32.729c-0,-22.968 -8.542,-42.347 -25.624,-58.138c-17.082,-15.79 -39.117,-23.685 -66.104,-23.685c-31.581,-0 -54.836,7.967 -69.765,23.901c-14.929,15.933 -27.562,39.404 -37.897,70.41c-9.761,32.442 -28.279,48.663 -55.554,48.663c-16.077,0 -29.642,-5.67 -40.696,-17.01c-11.053,-11.34 -16.58,-23.614 -16.58,-36.82Z" style="fill:#fff;"/></svg>