<?xml version="1.0" encoding="UTF-8" standalone="no"?><!DOCTYPE svg PUBLIC "-//W3C//DTD SVG 1.1//EN" "http://www.w3.org/Graphics/SVG/1.1/DTD/svg11.dtd"><svg width="100%" height="100%" viewBox="0 0 1080 1080" version="1.1" xmlns="http://www.w3.org/2000/svg" xmlns:xlink="http://www.w3.org/1999/xlink" xml:space="preserve" xmlns:serif="http://www.serif.com/" style="fill-rule:evenodd;clip-rule:evenodd;stroke-linejoin:round;stroke-miterlimit:2;"><rect id="Artboard4" x="0" y="0" width="1080" height="1080" style="fill:none;"/><g><g><path d="M524.102,44.172c-7.166,-4.138 -15.683,-5.259 -23.677,-3.118c-7.994,2.142 -14.809,7.372 -18.947,14.539c-67.013,116.07 -332.58,576.046 -455.25,788.516c-34.638,59.995 -14.082,136.71 45.913,171.348c-0,0 -0,0 -0,0c59.995,34.638 136.71,14.083 171.348,-45.912c122.67,-212.47 388.237,-672.446 455.25,-788.517c4.138,-7.167 5.259,-15.684 3.117,-23.677c-2.141,-7.994 -7.371,-14.809 -14.538,-18.947c-41.75,-24.104 -121.466,-70.128 -163.216,-94.232Zm-430.189,827.485c14.638,-25.354 47.107,-34.054 72.461,-19.416c25.354,14.639 34.054,47.107 19.415,72.461c-14.638,25.354 -47.106,34.054 -72.46,19.416c-25.354,-14.638 -34.054,-47.107 -19.416,-72.461Z" style="fill:#fff;"/><path d="M214.382,518.218l-120.444,208.613l217.261,125.436l120.444,-208.614l-217.261,-125.435Z" style="fill:#57cc33;fill-opacity:0.5;"/><path d="M355.731,273.394l-120.443,208.614l217.26,125.435l120.444,-208.613l-217.261,-125.436Z" style="fill:#c33;fill-opacity:0.5;"/><path d="M518.73,41.07c-11.957,-6.903 -27.247,-2.807 -34.15,9.151c-30.816,53.375 -107.943,186.963 -107.943,186.963l217.261,125.435c-0,0 77.127,-133.588 107.943,-186.963c6.903,-11.957 2.806,-27.247 -9.151,-34.15c-41.618,-24.029 -132.341,-76.408 -173.96,-100.436Z" style="fill:#4db3a0;fill-opacity:0.5;"/></g><g><path d="M899.626,350.713c-4.137,-7.167 -10.953,-12.397 -18.946,-14.539c-7.994,-2.142 -16.511,-1.02 -23.677,3.118c-116.071,67.013 -576.047,332.58 -788.517,455.25c-59.995,34.638 -80.551,111.353 -45.913,171.348c0,-0 0,-0 0.001,-0c34.638,59.995 111.353,80.551 171.348,45.913c212.469,-122.67 672.445,-388.237 788.516,-455.251c7.167,-4.137 12.397,-10.953 14.538,-18.946c2.142,-7.994 1.021,-16.511 -3.117,-23.678c-24.104,-41.749 -70.128,-121.466 -94.233,-163.215Zm-786.297,501.528c25.354,-14.638 57.822,-5.938 72.46,19.416c14.639,25.354 5.939,57.823 -19.415,72.461c-25.354,14.638 -57.823,5.938 -72.461,-19.416c-14.638,-25.354 -5.938,-57.822 19.416,-72.461Z" style="fill:#fff;"/><path d="M394.377,606.388l-208.613,120.443l125.435,217.261l208.614,-120.443l-125.436,-217.261Z" style="fill:#57cc33;fill-opacity:0.75;"/><path d="M639.201,465.039l-208.613,120.443l125.435,217.261l208.614,-120.443l-125.436,-217.261Z" style="fill:#c33;fill-opacity:0.75;"/><path d="M896.525,345.341c-6.904,-11.958 -22.193,-16.054 -34.151,-9.151c-53.375,30.816 -186.963,107.943 -186.963,107.943l125.436,217.261c-0,0 133.588,-77.127 186.963,-107.943c11.957,-6.904 16.054,-22.193 9.151,-34.151c-24.029,-41.618 -76.408,-132.341 -100.436,-173.959Z" style="fill:#4db3a0;fill-opacity:0.75;"/></g><g><path d="M1071.57,803.947c0,-8.276 -3.287,-16.212 -9.139,-22.064c-5.851,-5.852 -13.788,-9.139 -22.063,-9.139c-134.027,0 -665.162,0 -910.501,0c-69.276,0 -125.435,56.159 -125.435,125.436c-0,-0 -0,-0 -0,-0c-0,69.276 56.159,125.435 125.435,125.435c245.339,0 776.474,0 910.501,0c8.275,0 16.212,-3.287 22.063,-9.139c5.852,-5.852 9.139,-13.788 9.139,-22.064l0,-188.465Zm-931.718,41.188c29.276,-0 53.045,23.768 53.045,53.045c0,29.276 -23.769,53.045 -53.045,53.045c-29.276,-0 -53.045,-23.769 -53.045,-53.045c0,-29.277 23.769,-53.045 53.045,-53.045Z" style="fill:#fff;"/><rect x="265.287" y="772.744" width="240.886" height="250.871" style="fill:#57cc33;"/><rect x="547.985" y="772.744" width="240.886" height="250.871" style="fill:#c33;"/><path d="M1071.57,797.744c0,-13.807 -11.192,-25 -25,-25l-215.886,0l0,250.871l215.886,0c13.808,0 25,-11.193 25,-25l0,-200.871Z" style="fill:#4db3a0;"/></g></g></svg>