<?xml version="1.0" encoding="UTF-8" standalone="no"?><!DOCTYPE svg PUBLIC "-//W3C//DTD SVG 1.1//EN" "http://www.w3.org/Graphics/SVG/1.1/DTD/svg11.dtd"><svg width="100%" height="100%" viewBox="0 0 1080 1080" version="1.1" xmlns="http://www.w3.org/2000/svg" xmlns:xlink="http://www.w3.org/1999/xlink" xml:space="preserve" xmlns:serif="http://www.serif.com/" style="fill-rule:evenodd;clip-rule:evenodd;stroke-linejoin:round;stroke-miterlimit:2;"><rect id="Artboard2" x="0" y="0" width="1080" height="1080" style="fill:none;"/><g><path d="M1080,123.245c-0,-59.313 -48.083,-107.395 -107.396,-107.395c-206.856,-0 -658.352,-0 -865.208,-0c-59.313,-0 -107.396,48.082 -107.396,107.395c0,144.397 0,618.718 0,618.718l322.187,322.187c0,0 500.177,0 650.417,0c59.313,0 107.396,-48.082 107.396,-107.395c-0,-201.128 -0,-632.382 -0,-833.51Z" style="fill:#fff;"/><path d="M997.891,186.615c-0,-50.294 -40.772,-91.066 -91.066,-91.066c-175.403,0 -558.247,0 -733.65,0c-50.294,0 -91.066,40.772 -91.066,91.066c0,122.44 0,600.209 0,600.209l203.456,197.627c-0,-0 493.864,-0 621.26,-0c50.294,-0 91.066,-40.772 91.066,-91.066c-0,-170.545 -0,-536.225 -0,-706.77Z" style="fill:#5bf0ff;"/><clipPath id="_clip1"><path d="M1080,123.245c-0,-59.313 -48.083,-107.395 -107.396,-107.395c-206.856,-0 -658.352,-0 -865.208,-0c-59.313,-0 -107.396,48.082 -107.396,107.395c0,144.397 0,618.718 0,618.718l322.187,322.187c0,0 500.177,0 650.417,0c59.313,0 107.396,-48.082 107.396,-107.395c-0,-201.128 -0,-632.382 -0,-833.51Z"/></clipPath><g clip-path="url(#_clip1)"><path d="M314.011,953.025c-10.738,-112.311 -102.055,-199.849 -214.719,-205.833c-202.284,-10.745 -510.829,-27.133 -675.649,-35.887c-29.43,-1.563 -58.209,9.037 -79.595,29.316c-21.385,20.28 -33.496,48.457 -33.496,77.929c-0,145.565 -0,404.377 -0,612.861c-0,85.45 33.944,167.399 94.366,227.821c60.422,60.422 142.372,94.366 227.821,94.366c215.714,0 487.136,0 639.66,0c30.261,0 59.117,-12.766 79.471,-35.159c20.354,-22.393 30.317,-52.334 27.437,-82.457c-16.087,-168.257 -45.867,-479.738 -65.296,-682.957Z" style="fill:#006c77;"/></g><path d="M395.27,443.887c7.705,3.755 16.915,2.487 23.32,-3.209c6.405,-5.696 8.74,-14.694 5.911,-22.786c-19.47,-57.499 -73.913,-98.924 -137.955,-98.924c-64.042,0 -118.485,41.425 -137.973,98.918c-2.818,8.097 -0.477,17.094 5.929,22.791c6.407,5.696 15.616,6.969 23.327,3.224c30.799,-13.686 68.681,-22.984 108.717,-22.984c40.037,0 77.919,9.298 108.724,22.97Z" style="fill:#1a1a1a;"/><path d="M902.188,443.887c7.705,3.755 16.915,2.487 23.32,-3.209c6.405,-5.696 8.74,-14.694 5.911,-22.786c-19.47,-57.499 -73.913,-98.924 -137.955,-98.924c-64.042,0 -118.485,41.425 -137.973,98.918c-2.818,8.097 -0.478,17.094 5.929,22.791c6.407,5.696 15.616,6.969 23.327,3.224c30.799,-13.686 68.681,-22.984 108.717,-22.984c40.037,0 77.919,9.298 108.724,22.97Z" style="fill:#1a1a1a;"/><path d="M389.337,670.612c-4.893,-4.134 -11.914,-4.585 -17.296,-1.11c-5.381,3.475 -7.86,10.059 -6.106,16.22c24.045,58.55 198.889,166.278 280.065,166.278c81.176,0 44.02,-107.728 67.517,-166.434c1.662,-5.915 -0.726,-12.223 -5.888,-15.555c-5.162,-3.333 -11.893,-2.912 -16.599,1.038c-36.965,25.112 -91.412,42.955 -151.03,42.955c-59.618,-0 -114.065,-17.843 -150.663,-43.392Z" style="fill:#1a1a1a;"/></g></svg>