<?xml version="1.0" encoding="UTF-8" standalone="no"?><!DOCTYPE svg PUBLIC "-//W3C//DTD SVG 1.1//EN" "http://www.w3.org/Graphics/SVG/1.1/DTD/svg11.dtd"><svg width="100%" height="100%" viewBox="0 0 1080 1080" version="1.1" xmlns="http://www.w3.org/2000/svg" xmlns:xlink="http://www.w3.org/1999/xlink" xml:space="preserve" xmlns:serif="http://www.serif.com/" style="fill-rule:evenodd;clip-rule:evenodd;stroke-linejoin:round;stroke-miterlimit:2;"><rect id="Artboard16" x="0" y="0" width="1080" height="1080" style="fill:none;"/><path d="M540,0c298.034,0 540,241.966 540,540c0,298.034 -241.966,540 -540,540c-298.034,0 -540,-241.966 -540,-540c0,-298.034 241.966,-540 540,-540Zm282,308c-0,-27.596 -22.404,-50 -50,-50l-464,0c-27.596,0 -50,22.404 -50,50l0,464c0,27.596 22.404,50 50,50l464,-0c27.596,-0 50,-22.404 50,-50l-0,-464Z" style="fill:#fff;"/><g><path d="M614,337.5c0,-5.519 -4.481,-10 -10,-10l-286,0c-5.519,0 -10,4.481 -10,10l0,15c0,5.519 4.481,10 10,10l286,0c5.519,0 10,-4.481 10,-10l0,-15Z" style="fill:#fff;"/><path d="M772,402.5c-0,-5.519 -4.481,-10 -10,-10l-376,0c-5.519,0 -10,4.481 -10,10l0,15c0,5.519 4.481,10 10,10l376,0c5.519,0 10,-4.481 10,-10l-0,-15Z" style="fill:#fff;"/><path d="M678,467.5c0,-5.519 -4.481,-10 -10,-10l-311,0c-5.519,0 -10,4.481 -10,10l0,15c0,5.519 4.481,10 10,10l311,0c5.519,0 10,-4.481 10,-10l0,-15Z" style="fill:#fff;"/><path d="M722,532.5c-0,-5.519 -4.481,-10 -10,-10l-394,0c-5.519,0 -10,4.481 -10,10l0,15c0,5.519 4.481,10 10,10l394,-0c5.519,-0 10,-4.481 10,-10l-0,-15Z" style="fill:#fff;"/><path d="M682,597.5c0,-5.519 -4.481,-10 -10,-10l-286,-0c-5.519,-0 -10,4.481 -10,10l0,15c0,5.519 4.481,10 10,10l286,-0c5.519,-0 10,-4.481 10,-10l0,-15Z" style="fill:#fff;"/><path d="M772,662.5c-0,-5.519 -4.481,-10 -10,-10l-418,-0c-5.519,-0 -10,4.481 -10,10l-0,15c-0,5.519 4.481,10 10,10l418,-0c5.519,-0 10,-4.481 10,-10l-0,-15Z" style="fill:#fff;"/><path d="M529,727.5c0,-5.519 -4.481,-10 -10,-10l-201,-0c-5.519,-0 -10,4.481 -10,10l0,15c0,5.519 4.481,10 10,10l201,-0c5.519,-0 10,-4.481 10,-10l0,-15Z" style="fill:#fff;"/></g></svg>