<?xml version="1.0" encoding="UTF-8" standalone="no"?><!DOCTYPE svg PUBLIC "-//W3C//DTD SVG 1.1//EN" "http://www.w3.org/Graphics/SVG/1.1/DTD/svg11.dtd"><svg width="100%" height="100%" viewBox="0 0 1080 1080" version="1.1" xmlns="http://www.w3.org/2000/svg" xmlns:xlink="http://www.w3.org/1999/xlink" xml:space="preserve" xmlns:serif="http://www.serif.com/" style="fill-rule:evenodd;clip-rule:evenodd;stroke-linecap:round;stroke-linejoin:round;stroke-miterlimit:1.5;"><rect id="Artboard1" x="0" y="0" width="1080" height="1080" style="fill:none;"/><g id="Artboard11" serif:id="Artboard1"><path d="M270.271,1040.47c-8.111,0 -15.89,-3.222 -21.626,-8.957c-5.735,-5.736 -8.957,-13.515 -8.957,-21.626c-0,-0.02 -0,-0.04 -0,-0.06c0.005,-16.218 11.965,-29.95 28.028,-32.183c18.421,-1.443 31.953,-5.344 40.656,-11.287c12.665,-8.648 18.998,-23.543 18.998,-44.684c-0,0 -0,-354.375 -0,-589.717c-0,-54.256 -21.553,-106.289 -59.918,-144.654c-38.364,-38.364 -90.397,-59.917 -144.653,-59.917c-0.013,0 -0.02,0 -0.02,0c-17.329,0 -46.312,15.014 -72.847,34.609c-9.663,6.768 -22.378,7.302 -32.575,1.37c-10.197,-5.933 -16.016,-17.251 -14.908,-28.996c-0.032,-1.144 -0.049,-0.856 0,-1.372c4.976,-52.748 46.827,-93.474 99.81,-93.474c152.115,-0 451.338,-0 601.807,-0c51.583,-0 94.733,39.174 99.703,90.517c0.043,0.448 0.087,0.897 0.13,1.345c1.235,12.847 -5.069,25.25 -16.174,31.827c-11.105,6.576 -25.011,6.14 -35.683,-1.119c-25.66,-20.715 -55.565,-34.707 -73.945,-34.707c0,0 -0.007,0 -0.02,0c-54.256,0 -106.289,21.553 -144.653,59.917c-38.365,38.365 -59.918,90.398 -59.918,144.654c0,235.342 0,589.717 0,589.717c0,21.141 6.333,36.036 18.998,44.684c8.703,5.943 22.235,9.844 40.598,11.703c15.854,2.204 27.655,15.76 27.655,31.767c0.431,0.02 0.431,0.04 0.431,0.06c0,8.111 -3.222,15.89 -8.958,21.626c-5.735,5.735 -13.514,8.957 -21.625,8.957c-61.383,0 -198.951,0 -260.334,0Z" style="fill:#fff;fill-rule:nonzero;"/><path d="M1054,39.526l0,1000.95" style="fill:none;stroke:#fff;stroke-width:43.63px;"/></g></svg>