<?xml version="1.0" encoding="UTF-8" standalone="no"?><!DOCTYPE svg PUBLIC "-//W3C//DTD SVG 1.1//EN" "http://www.w3.org/Graphics/SVG/1.1/DTD/svg11.dtd"><svg width="100%" height="100%" viewBox="0 0 1080 1080" version="1.1" xmlns="http://www.w3.org/2000/svg" xmlns:xlink="http://www.w3.org/1999/xlink" xml:space="preserve" xmlns:serif="http://www.serif.com/" style="fill-rule:evenodd;clip-rule:evenodd;stroke-linejoin:round;stroke-miterlimit:2;"><rect id="Artboard20" x="0" y="0" width="1080" height="1080" style="fill:none;"/><clipPath id="_clip1"><rect x="0" y="0" width="1080" height="1080"/></clipPath><g clip-path="url(#_clip1)"><circle cx="540" cy="540" r="540"/><path d="M255.845,746.168c0,-0 -26.043,17.645 -11.353,40.245c9.511,14.632 31.64,15.255 36.699,-7.936c0,0 42.615,-0.557 45.958,-33.702c-0,0 58.212,15.319 82.445,-35.93c-0,-0 79.637,78.801 176.774,-12.417c-0,0 53.303,42.135 127.502,11.264c47.698,-19.845 59.884,-62.669 62.669,-79.381c-0,-0 77.292,-45.609 61.276,-125.338c-16.015,-79.73 -63.017,-86.345 -61.972,-86.693c-0,0 -35.165,-108.974 -144.14,-85.299c0,-0 -39.69,-49.439 -105.493,-47.699c-65.802,1.741 -90.522,61.973 -90.87,61.973c0,0 -71.721,-17.06 -123.249,35.165c-51.528,52.224 -29.594,96.092 -27.505,99.922c0,0 -33.075,35.164 -21.586,88.433c11.489,53.269 33.075,73.114 43.868,80.426c0,-0 -19.149,27.156 -11.489,50.831c0,0 -48.429,0.705 -39.534,46.136Z" style="fill:#fff;"/></g></svg>