<?xml version="1.0" encoding="UTF-8" standalone="no"?><!DOCTYPE svg PUBLIC "-//W3C//DTD SVG 1.1//EN" "http://www.w3.org/Graphics/SVG/1.1/DTD/svg11.dtd"><svg width="100%" height="100%" viewBox="0 0 1080 1080" version="1.1" xmlns="http://www.w3.org/2000/svg" xmlns:xlink="http://www.w3.org/1999/xlink" xml:space="preserve" xmlns:serif="http://www.serif.com/" style="fill-rule:evenodd;clip-rule:evenodd;stroke-linejoin:round;stroke-miterlimit:2;"><rect id="Artboard5" x="0" y="0" width="1080" height="1080" style="fill:none;"/><clipPath id="_clip1"><rect x="0" y="0" width="1080" height="1080"/></clipPath><g clip-path="url(#_clip1)"><g><g><path d="M356.026,923.696c-0,-5.689 2.26,-11.145 6.282,-15.167c4.023,-4.022 9.478,-6.282 15.167,-6.282c65.102,-0 259.948,-0 325.05,-0c5.689,-0 11.144,2.26 15.167,6.282c4.022,4.022 6.282,9.478 6.282,15.167l0,31.744c0,5.689 -2.26,11.145 -6.282,15.167c-4.023,4.022 -9.478,6.282 -15.167,6.282l-325.05,0c-5.689,0 -11.144,-2.26 -15.167,-6.282c-4.022,-4.022 -6.282,-9.478 -6.282,-15.167c-0,-9.963 -0,-21.781 -0,-31.744Z" style="fill:#fff;"/><path d="M401.345,820.455c0,-5.689 2.26,-11.145 6.282,-15.167c4.023,-4.023 9.479,-6.282 15.167,-6.282c48.959,-0 168.48,-0 217.439,-0c5.689,-0 11.144,2.259 15.167,6.282c4.022,4.022 6.282,9.478 6.282,15.167c0,9.963 0,21.781 0,31.744c0,5.689 -2.26,11.144 -6.282,15.167c-4.023,4.022 -9.478,6.282 -15.167,6.282c-48.959,0 -168.48,0 -217.439,0c-5.688,0 -11.144,-2.26 -15.167,-6.282c-4.022,-4.023 -6.282,-9.478 -6.282,-15.167c0,-9.963 0,-21.781 0,-31.744Z" style="fill:#fff;"/></g><g><path d="M974.52,207.108c-0,-59.191 -48.055,-107.246 -107.245,-107.246l-654.55,0c-59.19,0 -107.245,48.055 -107.245,107.246l0,343.39c0,59.19 48.055,107.245 107.245,107.245l654.55,0c59.19,0 107.245,-48.055 107.245,-107.245l-0,-343.39Z" style="fill:#9e0004;"/><path d="M610.067,228.557c-0,-5.689 -2.26,-11.145 -6.283,-15.167c-4.022,-4.023 -9.478,-6.282 -15.166,-6.282l-354.444,-0c-5.689,-0 -11.144,2.259 -15.167,6.282c-4.022,4.022 -6.282,9.478 -6.282,15.167l0,31.691c0,5.689 2.26,11.145 6.282,15.167c4.023,4.023 9.478,6.282 15.167,6.282c69.092,0 285.352,0 354.444,0c5.688,0 11.144,-2.259 15.166,-6.282c4.023,-4.022 6.283,-9.478 6.283,-15.167l-0,-31.691Z" style="fill:#fff;"/><path d="M867.275,362.931c-0,-11.846 -9.603,-21.449 -21.449,-21.449c-65.014,-0 -259.401,-0 -324.415,-0c-11.846,-0 -21.449,9.603 -21.449,21.449l-0,31.744c-0,11.846 9.603,21.449 21.449,21.449c65.014,0 259.401,0 324.415,0c11.846,0 21.449,-9.603 21.449,-21.449l-0,-31.744Z" style="fill:#fff;"/><path d="M672.804,497.305c-0,-5.689 -2.26,-11.145 -6.282,-15.167c-4.023,-4.023 -9.478,-6.282 -15.167,-6.282l-302.966,-0c-5.689,-0 -11.144,2.259 -15.167,6.282c-4.022,4.022 -6.282,9.478 -6.282,15.167l-0,31.744c-0,5.689 2.26,11.144 6.282,15.167c4.023,4.022 9.478,6.282 15.167,6.282l302.966,0c5.689,0 11.144,-2.26 15.167,-6.282c4.022,-4.023 6.282,-9.478 6.282,-15.167l-0,-31.744Z" style="fill:#fff;"/></g><path d="M923.031,826.33c0,-36.433 102.978,-36.433 102.978,-0c-0,1.561 0.62,3.059 1.724,4.163c1.104,1.104 2.602,1.724 4.163,1.724c4.425,0 11.021,0 18.665,0c11.907,0 22.641,7.173 27.197,18.173c4.557,11 2.038,23.662 -6.381,32.081c-35.555,35.555 -79.211,79.211 -92.694,92.694c-1.104,1.104 -2.602,1.724 -4.163,1.724c-1.562,0 -3.059,-0.62 -4.163,-1.724c-13.483,-13.483 -57.139,-57.139 -92.694,-92.694c-8.419,-8.419 -10.938,-21.081 -6.381,-32.081c4.556,-11 15.29,-18.173 27.197,-18.173c7.644,0 14.24,0 18.665,0c1.561,0 3.059,-0.62 4.163,-1.724c1.104,-1.104 1.724,-2.602 1.724,-4.163Z" style="fill:#fff;"/><path d="M53.991,949.565c0,36.432 102.978,36.432 102.978,-0c-0,-1.562 0.62,-3.059 1.724,-4.163c1.104,-1.104 2.602,-1.725 4.163,-1.725c4.425,0 11.021,0 18.665,0c11.907,0 22.641,-7.172 27.197,-18.172c4.557,-11 2.038,-23.662 -6.381,-32.081c-35.555,-35.555 -79.211,-79.211 -92.694,-92.694c-1.104,-1.104 -2.601,-1.724 -4.163,-1.724c-1.561,-0 -3.059,0.62 -4.163,1.724c-13.483,13.483 -57.139,57.139 -92.694,92.694c-8.419,8.419 -10.938,21.081 -6.381,32.081c4.556,11 15.29,18.172 27.197,18.172c7.644,0 14.24,0 18.665,0c1.561,0 3.059,0.621 4.163,1.725c1.104,1.104 1.724,2.601 1.724,4.163Z" style="fill:#fff;"/></g></g></svg>