<?xml version="1.0" encoding="UTF-8" standalone="no"?><!DOCTYPE svg PUBLIC "-//W3C//DTD SVG 1.1//EN" "http://www.w3.org/Graphics/SVG/1.1/DTD/svg11.dtd"><svg width="100%" height="100%" viewBox="0 0 1080 1080" version="1.1" xmlns="http://www.w3.org/2000/svg" xmlns:xlink="http://www.w3.org/1999/xlink" xml:space="preserve" xmlns:serif="http://www.serif.com/" style="fill-rule:evenodd;fill: rgb(172, 0, 0);clip-rule:evenodd;stroke-linecap:round;stroke-linejoin:round;stroke-miterlimit:1.5;"><rect id="Artboard20" x="0" y="0" width="1080" hover="blue" height="1080" style="fill:none;"/><clipPath id="_clip1"><rect x="0" y="0" width="1080" height="1080"/></clipPath><g clip-path="url(#_clip1)"><g><circle cx="540" cy="540" r="540"/><g><path d="M708.5,538l132,-0" style="fill: none;stroke:#fff;stroke-width:45.25px;"/><path d="M774.5,472l-0,132" style="fill:none;stroke:#fff;stroke-width:45.25px;"/></g><clipPath id="_clip2"><rect id="iconfinder_icons_user2_1564535" x="237" y="237" width="606" height="606"/></clipPath><g clip-path="url(#_clip2)"><g id="icons"><path d="M540.435,-192.25c390.445,0 707.436,316.991 707.436,707.435c-0,390.445 -316.991,707.436 -707.436,707.436c-390.444,-0 -707.435,-316.991 -707.435,-707.436c-0,-390.444 316.991,-707.435 707.435,-707.435Zm-52.98,1.958c-227.76,-0 -633.661,441.439 -633.661,669.199c-0,227.759 458.882,906.968 686.641,906.968c227.76,-0 764.508,-606.651 764.508,-834.411c0,-227.76 -589.728,-741.756 -817.488,-741.756Zm280.74,934.21c-58.665,51.764 -141.487,86.273 -227.76,86.273c-86.272,-0 -169.094,-34.509 -227.759,-86.273c-13.804,-13.803 -17.255,-34.509 -3.451,-48.312c37.96,-44.862 89.723,-75.92 144.938,-93.175c27.607,13.804 55.214,20.706 86.272,20.706c31.058,-0 58.666,-6.902 86.273,-20.706c58.665,17.255 106.978,48.313 144.938,93.175c13.804,13.803 13.804,34.509 -3.451,48.312Zm-227.76,-500.381c75.92,0 138.037,75.92 138.037,172.545c-0,96.626 -62.117,172.546 -138.037,172.546c-75.92,-0 -138.036,-75.92 -138.036,-172.546c0,-96.625 62.116,-172.545 138.036,-172.545Z" style="fill:#fff;"/></g></g></g></g></svg>