<?xml version="1.0" encoding="UTF-8" standalone="no"?><!DOCTYPE svg PUBLIC "-//W3C//DTD SVG 1.1//EN" "http://www.w3.org/Graphics/SVG/1.1/DTD/svg11.dtd">
<svg width="100%" height="100%" viewBox="0 0 1080 1080" version="1.1"
	xmlns="http://www.w3.org/2000/svg"
	xmlns:xlink="http://www.w3.org/1999/xlink" xml:space="preserve"
	xmlns:serif="http://www.serif.com/" style="fill-rule:evenodd;clip-rule:evenodd; fill: transparent;stroke-linejoin:round;stroke-miterlimit:2;">
	<rect id="Artboard19" x="0" y="0" width="1080" height="1080" style="fill:none;"/>
	<circle cx="540" cy="540" r="540"/>
	<g>
		<g>
			<path d="M740.587,522.236l-401.174,0l-0,243.889c-0,9.25 3.943,18.12 10.963,24.661c7.019,6.54 16.539,10.214 26.466,10.214c76.47,-0 249.846,-0 326.316,-0c9.927,0 19.447,-3.674 26.466,-10.214c7.02,-6.541 10.963,-15.411 10.963,-24.661c0,-74.795 0,-243.889 0,-243.889Z" style="fill:#fff;"/>
			<path d="M523.62,245.701c3.934,-4.229 9.978,-6.701 16.38,-6.701c6.402,0 12.446,2.472 16.38,6.701c49.067,52.726 195.154,209.709 255.115,274.142c4.877,5.241 5.762,12.351 2.279,18.321c-3.483,5.97 -10.724,9.756 -18.659,9.756c-109.568,-0 -400.662,-0 -510.23,-0c-7.935,-0 -15.176,-3.786 -18.659,-9.756c-3.483,-5.97 -2.598,-13.08 2.279,-18.321c59.961,-64.433 206.048,-221.416 255.115,-274.142Z" style="fill:#fff;"/>
		</g>
	</g>
</svg>
