<?xml version="1.0" encoding="UTF-8" standalone="no"?><!DOCTYPE svg PUBLIC "-//W3C//DTD SVG 1.1//EN" "http://www.w3.org/Graphics/SVG/1.1/DTD/svg11.dtd">
<svg width="100%" height="100%" viewBox="0 0 1080 1080" version="1.1"
    xmlns="http://www.w3.org/2000/svg"
    xmlns:xlink="http://www.w3.org/1999/xlink" xml:space="preserve"
    xmlns:serif="http://www.serif.com/" style="fill-rule:evenodd;clip-rule:evenodd;stroke-linecap:round;stroke-linejoin:round;stroke-miterlimit:1.5;">
    <rect id="Artboard20" x="0" y="0" width="1080" height="1080" style="fill:none;"/>
    <g>
        <g>
            <path d="M1002.68,897.422c-191.172,212.833 -536.42,214.929 -770.492,4.679c-234.075,-210.252 -268.905,-553.745 -77.733,-766.577c-108.038,191.372 -46.557,480.747 164.328,670.17c210.899,189.435 505.174,219.609 683.897,91.728Z" style="fill:#00909e;"/>
            <path d="M1008.45,902.605c2.644,-2.944 2.646,-7.406 0.007,-10.353c-2.636,-2.949 -7.074,-3.438 -10.289,-1.135c-94.544,64.892 -220.354,84.906 -347.986,60.967c-110.821,-20.789 -222.961,-74.942 -316.974,-162.448c-93.362,-86.374 -154.918,-193.204 -183.802,-301.036c-32.323,-120.545 -23.436,-242.628 31.661,-338.048c7.642,-13.586 3.868,-30.744 -8.794,-39.839c-12.662,-9.094 -30.125,-7.19 -40.539,4.403c-52.292,58.112 -89.007,125.32 -109.813,197.118c-20.822,71.868 -25.952,148.254 -15.772,224.033c18.851,140.307 90.034,278.83 209.844,383.864c119.177,103.273 264.203,155.11 404.329,154.831c147.636,-0.294 289.522,-57.898 388.128,-172.357Zm-934.711,-545.713c-12.948,55.772 -15.988,113.969 -9.263,172.078c14.876,128.557 76.735,256.477 183.906,355.102c107.838,100.39 241.686,152.877 372.514,157.658c114.853,4.195 227.346,-28.109 318.312,-97.375c-85.934,40.461 -188.874,53 -294.008,37.31c-117.877,-17.592 -238.247,-70.997 -340.843,-159.91c-103.246,-90.032 -173.106,-203.162 -207.023,-318.529c-14.383,-48.903 -22.238,-98.164 -23.595,-146.334Z" style="fill:#00909e;"/>
        </g>
        <g>
            <path d="M984.719,237.937l-386.086,386.086" style="fill:none;stroke:#00909e;stroke-width:187.16px;"/>
            <path d="M440.464,465.853l158.169,158.17" style="fill:none;stroke:#00909e;stroke-width:187.16px;"/>
        </g>
    </g>
</svg>