<svg xmlns="http://www.w3.org/2000/svg" width="1221" height="644" viewBox="0 0 1221 644">
  <g id="imalogo" transform="translate(1.664 0.63)">
    <rect id="Mesa-de-trabajo1" width="1221" height="644" transform="translate(-1.664 -0.63)" fill="none"/>
    <g id="Group_2" data-name="Group 2" transform="translate(4.386 3.181)">
      <ellipse id="som" cx="198.617" cy="11.157" rx="198.617" ry="11.157" transform="translate(413.097 613.35)" fill="rgba(26,26,26,0.25)"/>
      <g id="malla-2" opacity="0.75">
        <path id="Path_706" data-name="Path 706" d="M924.347,57.676l48.551,81.97-57.379,33.986-15.779-26.64L881.217,171.8l11.24-37.107-25.49-43.035Z" transform="translate(106.224 4.286)" fill-rule="evenodd"/>
        <path id="Path_707" data-name="Path 707" d="M815.367,78.266A66.348,66.348,0,0,0,745.4,15.812l-56.752,3.22a66.316,66.316,0,0,0,7.514,132.42l22.4-1.27-19.406,58.035,53.757-59.983A66.349,66.349,0,0,0,815.367,78.266Z" transform="translate(75.597 -1.051)" fill-rule="evenodd"/>
        <path id="Path_709" data-name="Path 709" d="M282.863,82.09A35.584,35.584,0,0,1,307.9,38.465L435.42,3.946a35.587,35.587,0,0,1,43.626,25.038l18.587,68.665a35.584,35.584,0,0,1-25.038,43.625l-29.428,7.966,40.454,52.217L413.74,157.207l-68.664,18.587a35.585,35.585,0,0,1-43.626-25.038Z" transform="translate(31.798 -2.704)" fill-rule="evenodd"/>
        <path id="Path_710" data-name="Path 710" d="M1033.221,308.484,868.131,189.937,785.149,305.5,838.8,344.028l-56.2,34.708,80.963-16.926,86.673,62.237,82.982-115.563Z" transform="translate(95.497 21.102)" fill-rule="evenodd"/>
        <path id="Path_711" data-name="Path 711" d="M151.872,362.3c-19.016-40.977,7.132-93.543,58.352-117.312s108.246-9.8,127.262,31.178c11.238,24.216,7.006,53.76-11.336,79.161l35.174,45.128L302,379.783a126.526,126.526,0,0,1-22.87,13.695C227.911,417.247,170.887,403.276,151.872,362.3Z" transform="translate(14.512 26.628)" fill-rule="evenodd"/>
        <path id="Path_712" data-name="Path 712" d="M117.243,188.559c-16.671-15.12-14.861-44.315,4.04-65.154s47.78-25.481,64.451-10.361c9.852,8.935,13.637,23.315,10.143,38.528l24.892,13.893-31.233,2.013a63.056,63.056,0,0,1-7.842,10.719C162.794,199.037,133.915,203.68,117.243,188.559Z" transform="translate(9.447 10.196)" fill-rule="evenodd"/>
      </g>
      <g id="b" transform="translate(367.139 168.316)">
        <g id="fondo" transform="translate(12.265 4.921)">
          <path id="Path_713" data-name="Path 713" d="M360.763,522.567s-34.369,5.508-14.32,35.691c0,0,30.4,12.777,34.368-10.134,0,0,33.708-.441,36.352-26.658,0,0,46.045,12.117,65.212-28.42,0,0,62.992,62.33,139.825-9.822,0,0,42.161,33.329,100.852,8.91,37.728-15.7,47.367-49.571,49.57-62.789,0,0,61.137-36.077,48.469-99.14s-49.845-68.3-49.019-68.572c0,0-27.815-86.2-114.012-67.47,0,0-31.393-39.105-83.443-37.728s-71.6,49.019-71.876,49.019c0,0-56.731-13.494-97.488,27.815S381.844,309.274,383.5,312.3c0,0-26.162,27.815-17.075,69.948s26.162,57.832,34.7,63.615c0,0-15.147,21.48-9.087,40.206,0,0-38.307.558-31.27,36.493Z" transform="translate(-340.163 -156.398)" fill="#fff" fill-rule="evenodd"/>
        </g>
        <g id="ILUS2">
          <g id="azul" transform="translate(0 11.483)">
            <path id="Path_714" data-name="Path 714" d="M368.373,510.276c-4.706,8.447-10.543,11.923-16.141,12.572a18.45,18.45,0,0,1-11.606-2.745,14.207,14.207,0,0,1-5.449-5.372,20.459,20.459,0,0,1-2.267-7.954,16.758,16.758,0,0,1,1.347-8.127c1.936-4.294,5.945-8.211,13.087-10.815a.531.531,0,0,0-.313-1.014c-8.08,2.055-12.824,6.019-15.362,10.52a19.7,19.7,0,0,0-2.293,11.554,23.761,23.761,0,0,0,2.082,7.654,17.522,17.522,0,0,0,7.057,7.136,20.891,20.891,0,0,0,14.239,2.492c6.116-1.215,12.35-5.6,16.571-15.434a.531.531,0,0,0-.954-.468Z" transform="translate(-329.281 -120.951)" fill="#00909e" fill-rule="evenodd"/>
            <path id="Path_715" data-name="Path 715" d="M721.986,408.167a103.979,103.979,0,0,1-2.971,11.606,80.358,80.358,0,0,1-7.153,16.241,68.674,68.674,0,0,1-6.73,9.577,70.49,70.49,0,0,1-5.328,5.665,73.335,73.335,0,0,1-5.9,5.083,78.084,78.084,0,0,1-9.836,6.439c-9.262,5.135-19.014,8.331-27.82,10.75a.531.531,0,1,0,.241,1.034,151.621,151.621,0,0,0,17.711-4.288,89.979,89.979,0,0,0,11.422-4.463,70.723,70.723,0,0,0,10.683-6.23,59.087,59.087,0,0,0,6.414-5.263,57.107,57.107,0,0,0,5.589-6.146,62.722,62.722,0,0,0,6.656-10.472,69.224,69.224,0,0,0,3.608-8.52,92.592,92.592,0,0,0,4.462-20.857.53.53,0,1,0-1.049-.157Z" transform="translate(-287.76 -131.006)" fill="#00909e" fill-rule="evenodd"/>
            <path id="Path_716" data-name="Path 716" d="M613.671,195.984a129.6,129.6,0,0,1,17.854-2.8,98.615,98.615,0,0,1,26.783,1.227,82.018,82.018,0,0,1,16.968,5.134,80.607,80.607,0,0,1,10.47,5.419,82.366,82.366,0,0,1,9.6,6.863,87.325,87.325,0,0,1,12.42,12.706c8.82,11.035,15.6,24.568,20.057,40a.531.531,0,0,0,1.027-.268,125.79,125.79,0,0,0-8.937-25.954,99.233,99.233,0,0,0-9.441-15.847,84.534,84.534,0,0,0-12.509-13.708,74.928,74.928,0,0,0-10-7.394,73.27,73.27,0,0,0-11.116-5.6A79.234,79.234,0,0,0,658.9,190.93a88.707,88.707,0,0,0-13.846-.941,117.143,117.143,0,0,0-31.645,4.967.53.53,0,1,0,.266,1.027Z" transform="translate(-293.206 -158.69)" fill="#00909e" fill-rule="evenodd"/>
            <path id="Path_717" data-name="Path 717" d="M476.946,208.3a72.4,72.4,0,0,1,14.378-15.96,105.053,105.053,0,0,1,27.667-16.318,130.377,130.377,0,0,1,20.449-6.437,135.049,135.049,0,0,1,14.074-2.419,123.845,123.845,0,0,1,14.234-.888,97.951,97.951,0,0,1,21.22,2.161c18.167,4,33.518,13.741,41.409,30.683a.531.531,0,0,0,.973-.427c-7.42-17.906-22.912-28.751-41.591-33.57a95.333,95.333,0,0,0-21.978-2.881,110.143,110.143,0,0,0-14.759.721A118,118,0,0,0,538.5,165.6a122.86,122.86,0,0,0-20.9,7.175,111.184,111.184,0,0,0-14.576,7.866c-11.362,7.3-20.824,16.485-26.98,27.1a.531.531,0,0,0,.9.555Z" transform="translate(-310.631 -162.22)" fill="#00909e" fill-rule="evenodd"/>
            <path id="Path_718" data-name="Path 718" d="M372.3,307.891c-1.672-5.865-2.472-13.77-2-22.63a97.55,97.55,0,0,1,7.705-33.025,83.077,83.077,0,0,1,11.538-19.273A77.051,77.051,0,0,1,400,222.3a78.169,78.169,0,0,1,12.3-8.476,88.588,88.588,0,0,1,20.943-8.268c15.276-3.962,33.973-5.044,56.8-1.787a.531.531,0,0,0,.171-1.047,171.769,171.769,0,0,0-34.594-3.156,115.555,115.555,0,0,0-23.175,2.678,87.985,87.985,0,0,0-22.071,8.034,75.426,75.426,0,0,0-13.093,8.781,74.4,74.4,0,0,0-10.942,11.361,82.5,82.5,0,0,0-11.594,20.468,95.321,95.321,0,0,0-5.781,22.661c-1.78,13.731-.485,26.316,2.323,34.657a.531.531,0,1,0,1.013-.316Z" transform="translate(-324.339 -157.475)" fill="#00909e" fill-rule="evenodd"/>
            <path id="Path_719" data-name="Path 719" d="M390.041,432.186a82.632,82.632,0,0,1-13.4-12.48A90.84,90.84,0,0,1,362.215,396.6a99.427,99.427,0,0,1-5.692-17.213,107.144,107.144,0,0,1-2.744-23.96,97.582,97.582,0,0,1,1.7-18.052,91.24,91.24,0,0,1,19.088-41.051.531.531,0,0,0-.8-.693,91.188,91.188,0,0,0-21.617,41.037,93.491,93.491,0,0,0-2.4,18.7,90.267,90.267,0,0,0,2.8,24.986,94.157,94.157,0,0,0,6.46,17.72,90.358,90.358,0,0,0,7.118,12.2,85.037,85.037,0,0,0,23.313,22.789.531.531,0,0,0,.6-.872Z" transform="translate(-326.683 -145.281)" fill="#00909e" fill-rule="evenodd"/>
            <path id="Path_720" data-name="Path 720" d="M375.914,458.869a34.714,34.714,0,0,1-.45-5.31,47.292,47.292,0,0,1,.613-7.875c.263-1.74.6-3.455.986-5.149.259-1.146.549-2.274.825-3.393.449-1.819.9-3.592,1.417-5.283.561-1.845,1.143-3.588,1.772-5.2,1.776-4.543,3.73-7.962,5.518-9.231a.531.531,0,1,0-.535-.917c-1.7.794-3.85,2.922-6.009,6.032a42.648,42.648,0,0,0-2.866,4.832,47.3,47.3,0,0,0-2.261,5.143c-.425,1.152-.814,2.346-1.133,3.575a36.61,36.61,0,0,0-.749,3.68,42.383,42.383,0,0,0-.485,5.616,37.807,37.807,0,0,0,.151,4.228,35.738,35.738,0,0,0,2.183,9.533.531.531,0,1,0,1.022-.284Z" transform="translate(-323.779 -129.896)" fill="#00909e" fill-rule="evenodd"/>
            <path id="Path_721" data-name="Path 721" d="M364.471,511.054a45.933,45.933,0,0,0,10.6.773,32.239,32.239,0,0,0,4.619-.577,28.881,28.881,0,0,0,6.005-1.885,23.631,23.631,0,0,0,7.024-4.7,28.2,28.2,0,0,0,4.023-4.85,32.96,32.96,0,0,0,2.908-5.47,44.813,44.813,0,0,0,2.574-8.725.531.531,0,0,0-1.021-.291,40.325,40.325,0,0,1-7.187,12.44,32.06,32.06,0,0,1-3.979,3.882,34.392,34.392,0,0,1-2.958,2.156,35.351,35.351,0,0,1-3.153,1.864,34.376,34.376,0,0,1-5.13,2.16,41.567,41.567,0,0,1-8.379,1.82,53.929,53.929,0,0,1-5.849.344.531.531,0,0,0-.1,1.057Z" transform="translate(-324.868 -121.186)" fill="#00909e" fill-rule="evenodd"/>
            <path id="Path_722" data-name="Path 722" d="M397.548,486.851a46.007,46.007,0,0,0,7.286,1.753,38.6,38.6,0,0,0,5.018.49,27.122,27.122,0,0,0,4.248-.179,22.868,22.868,0,0,0,4.209-.966,19.85,19.85,0,0,0,4.007-1.791,14.106,14.106,0,0,0,6.5-7.658.531.531,0,0,0-.961-.451c-1.747,2.824-4.466,4.341-7.527,5.335a33.42,33.42,0,0,1-5.151,1.1c-1.183.186-2.369.365-3.541.516-1.9.245-3.746.447-5.462.571-4.8.347-8.42.234-8.42.234a.531.531,0,0,0-.2,1.043Z" transform="translate(-320.656 -122.102)" fill="#00909e" fill-rule="evenodd"/>
            <path id="Path_723" data-name="Path 723" d="M346.657,493.215a59.188,59.188,0,0,1,.513-6.707,40.861,40.861,0,0,1,2.417-9.525,32.022,32.022,0,0,1,2.895-5.673,32.612,32.612,0,0,1,2.506-3.371,33.65,33.65,0,0,1,2.9-3.059,35.614,35.614,0,0,1,5.089-3.918,51.623,51.623,0,0,1,15.311-6.381.531.531,0,0,0-.188-1.045,58.558,58.558,0,0,0-10.205,1.918,40.376,40.376,0,0,0-6.58,2.533,32.169,32.169,0,0,0-6.065,3.84,26.259,26.259,0,0,0-3.486,3.377,25.442,25.442,0,0,0-2.784,3.99,29.129,29.129,0,0,0-2.745,6.683,33.2,33.2,0,0,0-.986,5.248,49.686,49.686,0,0,0,.352,12.155.531.531,0,0,0,1.06-.065Z" transform="translate(-327.28 -125.181)" fill="#00909e" fill-rule="evenodd"/>
            <path id="Path_724" data-name="Path 724" d="M715.461,256.607c6.091,1.3,14.008,6.093,22.038,13.369a117.124,117.124,0,0,1,23.88,30.776,101.863,101.863,0,0,1,9.367,24.087,83.892,83.892,0,0,1,2.357,16.974,74.9,74.9,0,0,1-1.333,17.034,76.484,76.484,0,0,1-9.18,23.959c-8.9,15.214-23.945,30.246-47.432,44.041a.531.531,0,0,0,.521.925,158.377,158.377,0,0,0,32.635-22.722A100.414,100.414,0,0,0,765.5,384.567a77.731,77.731,0,0,0,10.217-24.909,74.164,74.164,0,0,0,1.608-17.986,81.9,81.9,0,0,0-2.613-17.829,100.548,100.548,0,0,0-10.251-24.809,116.6,116.6,0,0,0-25.545-30.688c-8.548-7.171-16.938-11.707-23.26-12.783a.531.531,0,1,0-.2,1.043Z" transform="translate(-280.252 -150.353)" fill="#00909e" fill-rule="evenodd"/>
            <path id="Path_725" data-name="Path 725" d="M600.849,451.505a66.584,66.584,0,0,1-13.469,13.208A109.051,109.051,0,0,1,562.761,478.6a112.569,112.569,0,0,1-17.922,5.639,106.891,106.891,0,0,1-12.326,2.011,97.533,97.533,0,0,1-12.458.515,86.847,86.847,0,0,1-18.535-2.437c-13.806-3.377-27.724-10.44-40.833-22.764a.531.531,0,0,0-.746.755,97.712,97.712,0,0,0,22.753,17.816,84.286,84.286,0,0,0,37.214,10.662,87.2,87.2,0,0,0,13.037-.34,93.581,93.581,0,0,0,12.83-2.232,105.449,105.449,0,0,0,18.385-6.381,108.5,108.5,0,0,0,16.879-9.556c9.3-6.438,16.483-13.651,20.687-20.18a.53.53,0,1,0-.876-.6Z" transform="translate(-312.688 -125.467)" fill="#00909e" fill-rule="evenodd"/>
          </g>
          <g id="rojo" transform="translate(8.92 17.931)">
            <path id="Path_726" data-name="Path 726" d="M368.149,387.106c-1.023-3.209-1.993-6.74-2.822-10.55a91.549,91.549,0,0,1-2.049-16.078,82.786,82.786,0,0,1,.3-10.706q.321-3.461.958-7.05c.4-2.279.889-4.6,1.508-6.956A81.8,81.8,0,0,1,369.43,325.6,92.754,92.754,0,0,1,383.3,302.359a.531.531,0,0,0-.8-.7,98.21,98.21,0,0,0-10.543,12.873,79.548,79.548,0,0,0-5.632,9.67,71.31,71.31,0,0,0-4.166,10.46,62.752,62.752,0,0,0-1.79,7.319,62.12,62.12,0,0,0-.877,7.485,69.912,69.912,0,0,0,.264,11.261,78.626,78.626,0,0,0,1.967,11.022,102.978,102.978,0,0,0,5.433,15.729.531.531,0,0,0,.994-.373Z" transform="translate(-334.375 -150.963)" fill="#9e0004" fill-rule="evenodd"/>
            <path id="Path_727" data-name="Path 727" d="M381.153,313.922a95.288,95.288,0,0,1-1.669-22.527,93.38,93.38,0,0,1,7.431-32.7,86.7,86.7,0,0,1,11.293-19.183A82.244,82.244,0,0,1,408.325,228.7,77.828,77.828,0,0,1,440.7,211.319c15.9-4.174,34.579-3.983,55.663,2.394a.531.531,0,1,0,.328-1.01,116.008,116.008,0,0,0-33.734-6.747,88.261,88.261,0,0,0-23.065,2.053,78.492,78.492,0,0,0-21.712,8.43,75.889,75.889,0,0,0-12.668,9.1,78.513,78.513,0,0,0-10.555,11.475,85.81,85.81,0,0,0-11.313,20.334,90.936,90.936,0,0,0-4.759,16.736,95.723,95.723,0,0,0,1.229,40.065.531.531,0,1,0,1.037-.23Z" transform="translate(-332.092 -163.117)" fill="#9e0004" fill-rule="evenodd"/>
            <path id="Path_728" data-name="Path 728" d="M483.713,218.122a52.028,52.028,0,0,1,10.93-18.277A81.2,81.2,0,0,1,520.37,181.03a92.481,92.481,0,0,1,20.131-6.847,91.259,91.259,0,0,1,14.024-1.9,86.478,86.478,0,0,1,14.133.327,81.637,81.637,0,0,1,20.62,4.962c14.744,5.661,29.157,16.035,41.794,32.712a.531.531,0,1,0,.86-.622,106.628,106.628,0,0,0-22.339-24.038,85.764,85.764,0,0,0-19.037-11.21,81.349,81.349,0,0,0-36.268-6.353A84.923,84.923,0,0,0,539.6,170.19a90.382,90.382,0,0,0-20.8,7.677,86.461,86.461,0,0,0-13.966,8.981c-11.134,8.809-19.112,19.77-22.139,30.972a.531.531,0,0,0,1.018.3Z" transform="translate(-318.698 -167.942)" fill="#9e0004" fill-rule="evenodd"/>
            <path id="Path_729" data-name="Path 729" d="M614.948,206.182a92.446,92.446,0,0,1,16.69-1.349,99.865,99.865,0,0,1,24.7,3.355,100.4,100.4,0,0,1,25.389,10.574,94.069,94.069,0,0,1,9.152,6.1,82.329,82.329,0,0,1,12.1,11.2,73.6,73.6,0,0,1,17.607,37.127.531.531,0,1,0,1.052-.143,74.716,74.716,0,0,0-16.049-39.175,78.753,78.753,0,0,0-12.233-12.188,81.512,81.512,0,0,0-9.484-6.558,85.6,85.6,0,0,0-10.294-5.167,94.1,94.1,0,0,0-16.415-5.2,95.266,95.266,0,0,0-42.438.389.53.53,0,0,0,.218,1.038Z" transform="translate(-301.961 -163.541)" fill="#9e0004" fill-rule="evenodd"/>
            <path id="Path_730" data-name="Path 730" d="M709.506,265.8c5.99,1.674,13.459,6.007,20.9,12.357A97.3,97.3,0,0,1,753.094,306.6a79.69,79.69,0,0,1,7.92,22.742,70.671,70.671,0,0,1-1.536,31.74,83.976,83.976,0,0,1-9.94,22c-8.817,14.03-22.734,28.49-43.489,42.816a.531.531,0,1,0,.586.885,185.861,185.861,0,0,0,29.544-22.756,117.927,117.927,0,0,0,16.215-19.087,84.309,84.309,0,0,0,10.958-22.727,69,69,0,0,0,1.685-33.624,80,80,0,0,0-8.838-23.669,97.1,97.1,0,0,0-19.635-24.395c-9.421-8.474-19.314-14.011-26.794-15.753a.531.531,0,0,0-.264,1.029Z" transform="translate(-290.326 -155.632)" fill="#9e0004" fill-rule="evenodd"/>
            <path id="Path_731" data-name="Path 731" d="M721.99,408.3a60.416,60.416,0,0,1-6.269,21.017A90.245,90.245,0,0,1,695.974,455.5a89.082,89.082,0,0,1-17.682,12.749,82.188,82.188,0,0,1-13.275,5.8,76.393,76.393,0,0,1-35.806,3.193c-15.433-2.251-32.187-9.148-49.766-22.6a.531.531,0,1,0-.663.829,126.2,126.2,0,0,0,28.289,18.255,90.43,90.43,0,0,0,21.588,6.873,77.367,77.367,0,0,0,22.788.768,74.4,74.4,0,0,0,14.911-3.312,78.259,78.259,0,0,0,13.926-6.235,87.651,87.651,0,0,0,18.127-13.77A91.74,91.74,0,0,0,709.38,445.03c8.429-12.148,13.256-25.39,13.67-36.67a.531.531,0,1,0-1.06-.063Z" transform="translate(-306.503 -137.444)" fill="#9e0004" fill-rule="evenodd"/>
            <path id="Path_732" data-name="Path 732" d="M589.871,449.544a51.7,51.7,0,0,1-8.535,10.018,70.06,70.06,0,0,1-16.182,11.09,78.435,78.435,0,0,1-12.1,4.847q-4.033,1.241-8.42,2.124c-2.76.557-5.622,1.013-8.594,1.322a91.752,91.752,0,0,1-13.088.411,108.266,108.266,0,0,1-32.366-6.495.531.531,0,1,0-.392.986,115.22,115.22,0,0,0,19.126,6.614,93.8,93.8,0,0,0,13.4,2.294,83.013,83.013,0,0,0,13.67.209,72.355,72.355,0,0,0,9.075-1.195,69.677,69.677,0,0,0,8.851-2.376,71.734,71.734,0,0,0,12.511-5.63,68.6,68.6,0,0,0,8.511-5.74,58.271,58.271,0,0,0,15.455-17.948.531.531,0,1,0-.92-.531Z" transform="translate(-317.784 -132.17)" fill="#9e0004" fill-rule="evenodd"/>
            <path id="Path_733" data-name="Path 733" d="M352.958,481.257a27.927,27.927,0,0,1,9.3-23.705c5.045-4.519,12.739-8.389,24.424-10.184a.531.531,0,1,1,.205,1.042c-10.917,2.642-17.87,6.9-22.351,11.513a26.737,26.737,0,0,0-7.26,22.158A2.077,2.077,0,0,1,356,484.443a26.318,26.318,0,0,0-9.562,6.133,24.88,24.88,0,0,0-6.154,9.671c-1.743,5.322-1.114,10.7,2.83,14.227a.531.531,0,1,1-.669.824c-5.9-4.353-6.567-12.387-3.307-19.882a28.637,28.637,0,0,1,13.818-14.159Z" transform="translate(-337.195 -132.414)" fill="#9e0004" fill-rule="evenodd"/>
            <path id="Path_734" data-name="Path 734" d="M371.628,501.378a25.138,25.138,0,0,0,4.243,2.227,25.658,25.658,0,0,0,4.631,1.457,20.441,20.441,0,0,0,3.94.432,15.015,15.015,0,0,0,2.68-.18,16.467,16.467,0,0,0,4.815-1.594,16.649,16.649,0,0,0,3.846-2.693,20.144,20.144,0,0,0,4.061-5.423.531.531,0,1,0-.866-.614,20.235,20.235,0,0,1-4.606,3.644,18.622,18.622,0,0,1-5.183,2.018,28.885,28.885,0,0,1-3.245.559c-1.145.145-2.258.267-3.341.306a36.765,36.765,0,0,1-4.159-.054,35.362,35.362,0,0,1-6.352-1.038.531.531,0,1,0-.467.954Z" transform="translate(-332.855 -126.386)" fill="#9e0004" fill-rule="evenodd"/>
            <path id="Path_735" data-name="Path 735" d="M344.553,511.158a35.217,35.217,0,0,0,5.134,3.675,29.633,29.633,0,0,0,5.848,2.7,19.55,19.55,0,0,0,5.279.966,13.953,13.953,0,0,0,3.726-.346,11.7,11.7,0,0,0,2.7-.987,13.125,13.125,0,0,0,4.893-4.361,18.052,18.052,0,0,0,2.294-4.8,31.639,31.639,0,0,0,1.285-7.493.531.531,0,1,0-1.047-.173,26.888,26.888,0,0,1-4.028,8.933,14.109,14.109,0,0,1-2.485,2.618,10.691,10.691,0,0,1-4.574,2.145,15.985,15.985,0,0,1-4.4.369,26.979,26.979,0,0,1-4.688-.67,42.253,42.253,0,0,1-9.323-3.438.531.531,0,1,0-.616.864Z" transform="translate(-336.288 -125.735)" fill="#9e0004" fill-rule="evenodd"/>
          </g>
          <g id="NEGRO" transform="translate(9.91)">
            <path id="Path_736" data-name="Path 736" d="M380.048,306.577c-1.925-3.847-2.585-10.211-1.979-17.942a92.861,92.861,0,0,1,6.627-26.85A100.574,100.574,0,0,1,395.6,241.748a92.85,92.85,0,0,1,46.233-34.733c15.016-5.133,33.252-7.564,55.571-5.4a1.327,1.327,0,0,0,.39-2.625,151.772,151.772,0,0,0-34.833-3.342,108.642,108.642,0,0,0-23.538,3.2,90.687,90.687,0,0,0-22.413,8.888,80.709,80.709,0,0,0-13.284,9.329,81.728,81.728,0,0,0-11.118,11.811,91.9,91.9,0,0,0-12.091,20.859,97.916,97.916,0,0,0-7.135,28.888c-1.129,13.073.8,23.891,4.366,29.288a1.327,1.327,0,0,0,2.3-1.33Z" transform="translate(-333.625 -146.494)" fill="#0d0d0d" fill-rule="evenodd"/>
            <path id="Path_737" data-name="Path 737" d="M485.11,206.217c1.431-4.345,6.067-10.364,12.936-16.658a107.626,107.626,0,0,1,26.742-17.623A102.177,102.177,0,0,1,544.66,165a96,96,0,0,1,13.709-2.178,89.227,89.227,0,0,1,13.838-.179,85.93,85.93,0,0,1,20.53,3.933c14.561,4.675,29.874,13.466,45.429,28.483a1.327,1.327,0,0,0,1.942-1.81,136.326,136.326,0,0,0-24.419-23.343A98.358,98.358,0,0,0,595.7,158.588a84.424,84.424,0,0,0-22.542-5.986,77.788,77.788,0,0,0-15.673-.314,81.1,81.1,0,0,0-15.382,2.805,94.752,94.752,0,0,0-21.384,9.008,105.18,105.18,0,0,0-22.653,17.5c-8.934,9.123-14.377,18.183-15.52,23.944a1.327,1.327,0,0,0,2.568.674Z" transform="translate(-319.71 -152.033)" fill="#0d0d0d" fill-rule="evenodd"/>
            <path id="Path_738" data-name="Path 738" d="M622.914,191.146a60.083,60.083,0,0,1,16.719-1.36,95.3,95.3,0,0,1,24.583,4.462,105.245,105.245,0,0,1,15.27,6.168c3.177,1.576,6.346,3.365,9.531,5.328,3.021,1.863,6.056,3.871,9.052,6.124a107.9,107.9,0,0,1,12.425,10.893,120.449,120.449,0,0,1,23.626,34.965,1.327,1.327,0,1,0,2.485-.93,128.7,128.7,0,0,0-9.887-24.589,103.3,103.3,0,0,0-9.8-15.043,92.729,92.729,0,0,0-12.52-13.152,77.962,77.962,0,0,0-20.617-12.887A88.8,88.8,0,0,0,666.4,185.7a87.722,87.722,0,0,0-13.468-1.681c-12.869-.58-23.832,1.584-30.885,4.621a1.327,1.327,0,0,0,.864,2.51Z" transform="translate(-302.08 -147.978)" fill="#0d0d0d" fill-rule="evenodd"/>
            <path id="Path_739" data-name="Path 739" d="M722.527,250.9c5.988,1.558,12.71,6.484,19.266,13.628a107.977,107.977,0,0,1,19.065,30.541,114.405,114.405,0,0,1,6.964,22.765,104.792,104.792,0,0,1,1.813,15.6,92.081,92.081,0,0,1-.613,15.6,82.144,82.144,0,0,1-6.234,22.608c-6.906,15.741-19.286,31.161-39.636,44.871a1.327,1.327,0,0,0,1.379,2.269,125.544,125.544,0,0,0,30.591-22.542,91.359,91.359,0,0,0,15.328-20.873,83.609,83.609,0,0,0,9.751-42.348,90.848,90.848,0,0,0-2.369-17.331,107.215,107.215,0,0,0-8.973-24.367,110.9,110.9,0,0,0-14.3-21.423c-10.533-12.315-22.275-20.25-31.5-21.61a1.327,1.327,0,1,0-.526,2.6Z" transform="translate(-289.326 -139.796)" fill="#0d0d0d" fill-rule="evenodd"/>
            <path id="Path_740" data-name="Path 740" d="M739.2,398.68a63.26,63.26,0,0,1-7.84,20.421A90.686,90.686,0,0,1,710,443.568a102.452,102.452,0,0,1-18.035,11.721,106.659,106.659,0,0,1-13.118,5.6,102.544,102.544,0,0,1-13.719,3.842,94.844,94.844,0,0,1-21.384,1.906c-16.354-.418-34-4.918-52.331-15.581a1.327,1.327,0,1,0-1.452,2.222A120.73,120.73,0,0,0,620.3,469.808a98.13,98.13,0,0,0,22.856,5.33,91.782,91.782,0,0,0,23.726-.472,86.412,86.412,0,0,0,15.454-3.795,88.1,88.1,0,0,0,14.475-6.569,96.13,96.13,0,0,0,19.032-14.117,92.649,92.649,0,0,0,11.6-13.359c8.606-12.129,13.689-25.425,14.4-37.842a1.327,1.327,0,1,0-2.636-.3Z" transform="translate(-306.123 -120.822)" fill="#0d0d0d" fill-rule="evenodd"/>
            <path id="Path_741" data-name="Path 741" d="M384.284,514.755a33.724,33.724,0,0,1-8.732,10.34,18.723,18.723,0,0,1-10.629,3.95,29.927,29.927,0,0,1-14.7-3.107,22.04,22.04,0,0,1-10.491-11c-2.066-5.052-3.207-13.817,2.831-21.008,3.374-4.019,9.038-7.614,18.291-9.553a1.327,1.327,0,1,1,.622,2.58c-8.154,2.227-13.09,5.6-15.894,9.362-4.417,5.922-3.172,12.745-1.332,16.624a16.767,16.767,0,0,0,8.45,7.881,23.959,23.959,0,0,0,11.866,1.806,13.16,13.16,0,0,0,8.213-4.337,28.539,28.539,0,0,0,5.638-8.66,3.794,3.794,0,0,1,3.247-2.323c9.937-.88,16.826-3.236,21.6-6.209,10.315-6.428,9.351-15.9,9.351-15.9a4.79,4.79,0,0,1,6.269-5.069c14.313,4.556,25.751,2.857,34.674-1.261,17.016-7.852,24.954-24.579,24.954-24.579a5.088,5.088,0,0,1,7.919-1.746,96.262,96.262,0,0,0,38.431,21,89.2,89.2,0,0,0,29.282,2.949c23.038-1.519,46.383-11.772,67.191-31.111a1.327,1.327,0,1,1,1.863,1.89c-20.544,21.476-44.406,33.521-68.391,36.382a94.109,94.109,0,0,1-39.846-3.833,103.611,103.611,0,0,1-30.279-15.736c-4.23,6.774-12.936,18.1-26.754,24.352-9.643,4.361-21.755,6.278-36.406,2.493a26.334,26.334,0,0,1-9.162,14.395c-5.452,4.49-14.12,8.474-28.076,9.43Z" transform="translate(-338.074 -114.783)" fill="#0d0d0d" fill-rule="evenodd"/>
            <path id="Path_742" data-name="Path 742" d="M392.815,428.555a81.753,81.753,0,0,1-17.972-19.8,104.52,104.52,0,0,1-15.46-43.461c-3.211-25.855,2.963-52.66,20.787-71.016a1.327,1.327,0,0,1,1.976,1.772c-15.309,18.492-18.857,43.907-14.345,67.932a106.137,106.137,0,0,0,15.833,38.995c5.27,7.895,11.446,14.914,18.752,20.168a5.024,5.024,0,0,1,1.162,7.056,63.293,63.293,0,0,0-8.946,17.954c-1.783,5.886-2.811,12.638-1.054,19.342a3.755,3.755,0,0,1-3.343,4.821s-14.229.3-23.246,8.571c-5.176,4.749-8.572,12.067-6.762,23.406a1.327,1.327,0,1,1-2.6.541c-3.314-12.876.177-21.631,5.662-27.638,6.58-7.207,16.366-10.327,22-11.591a45.42,45.42,0,0,1,.672-19.807A69.444,69.444,0,0,1,392.815,428.555Z" transform="translate(-335.755 -134.002)" fill="#0d0d0d" fill-rule="evenodd"/>
          </g>
        </g>
        <g id="TEXT" transform="translate(205.283 86.795)">
          <path id="Path_743" data-name="Path 743" d="M545.227,336.454v-2.54a4.29,4.29,0,0,1,3.691-4.248A8.382,8.382,0,0,0,552.5,328.5q2.01-1.392,2.011-4.795v-82.7a2.54,2.54,0,0,0-2.539-2.539H532.851c-1.648,0-4.292,1.3-6.851,3.092a3.864,3.864,0,0,1-6.042-3.539h-.009a9.9,9.9,0,0,1,9.855-8.98h65.228a9.873,9.873,0,0,1,9.829,8.935h0a3.821,3.821,0,0,1-5.889,3.564c-2.687-1.781-5.537-3.07-7.339-3.07H572.516a2.54,2.54,0,0,0-2.539,2.539v82.7q0,3.4,2.011,4.795a8.427,8.427,0,0,0,3.578,1.169,4.287,4.287,0,0,1,3.689,4.245c0,1.359,0,2.539,0,2.539H545.227Z" transform="translate(-510.322 -229.037)" fill="#0d0d0d"/>
          <path id="Path_744" data-name="Path 744" d="M563.692,319.919a50.8,50.8,0,0,1,37.087,15.391q15.507,15.391,15.507,36.584t-15.507,37.047Q585.271,424.8,566.786,424.8c6.806,0,9.608-.036,15.176.994s8.5,2.747,17.229,3.588A72.811,72.811,0,0,0,616,428.838a.758.758,0,0,1,.434,1.437c-4.755,2.1-12.46,4.854-20.482,5.042-8.366.2-12.934-.809-19.884-2.785a63.016,63.016,0,0,0-17.326-2.784c-3.963,0-12.181,1.493-17.276,2.5a.761.761,0,0,1-.5-1.416c4.539-2.464,12.351-6.037,19.635-6.037q-19.027,0-34.108-15.856t-15.082-37.047q0-21.888,15.082-36.932T563.692,319.919Zm-3.094,7.735q-13.921,1.547-24.441,14.076-9.436,11.216-9.435,29.468,0,2.166.154,4.409a49.435,49.435,0,0,0,12.22,29.08q10.674,12.067,27.69,12.375,16.706-1.236,25.677-13.3,8.43-11.292,8.431-31.479,0-1.393-.078-2.862a50.489,50.489,0,0,0-12.685-29.855q-10.6-11.911-25.987-11.911Z" transform="translate(-511.407 -217.481)" fill="#0d0d0d"/>
          <ellipse id="Ellipse_1" data-name="Ellipse 1" cx="44.822" cy="44.214" rx="44.822" ry="44.214" transform="translate(11.762 113.985)" fill="#0d0d0d"/>
        </g>
        <g id="ojos" transform="translate(128.417 151.254)">
          <path id="Path_745" data-name="Path 745" d="M444.649,316.392a.751.751,0,0,1-1.411-.5,40.051,40.051,0,0,1,77.362,0,.75.75,0,0,1-1.409.5c-6.054-13.526-20.523-23.358-37.271-23.358S450.7,302.865,444.649,316.392Z" transform="translate(-443.212 -286.225)" fill="#0d0d0d" fill-rule="evenodd"/>
          <path id="Path_746" data-name="Path 746" d="M679.152,316.392a.751.751,0,0,0,1.411-.5,40.052,40.052,0,0,0-77.363,0,.75.75,0,0,0,1.409.5c6.054-13.526,20.524-23.358,37.271-23.358S673.1,302.865,679.152,316.392Z" transform="translate(-422.873 -286.225)" fill="#0d0d0d" fill-rule="evenodd"/>
        </g>
      </g>
    </g>
  </g>
</svg>
