<?xml version="1.0" encoding="UTF-8" standalone="no"?><!DOCTYPE svg PUBLIC "-//W3C//DTD SVG 1.1//EN" "http://www.w3.org/Graphics/SVG/1.1/DTD/svg11.dtd"><svg width="100%" height="100%" viewBox="0 0 1081 571" version="1.1" xmlns="http://www.w3.org/2000/svg" xmlns:xlink="http://www.w3.org/1999/xlink" xml:space="preserve" xmlns:serif="http://www.serif.com/" style="fill-rule:evenodd;clip-rule:evenodd;stroke-linejoin:round;stroke-miterlimit:2;"><rect id="Mesa-de-trabajo1" serif:id="Mesa de trabajo1" x="0" y="0" width="1080" height="570.006" style="fill:none;"/><g><ellipse id="som" cx="546.267" cy="556.763" rx="176.212" ry="9.898" style="fill:#1a1a1a;fill-opacity:0.25;"/><g id="malla-2" serif:id="malla 2" opacity="0.75"><path d="M64.432,281.766c1.667,-5.251 -1.243,-10.867 -6.494,-12.534l-35.337,-11.217c-5.251,-1.667 -10.868,1.243 -12.534,6.494l-6.04,19.028c-1.667,5.251 1.243,10.867 6.494,12.534l8.155,2.588l-11.973,14.153l20.128,-11.564l19.028,6.04c5.25,1.666 10.867,-1.243 12.533,-6.494l6.04,-19.028Z"/><path d="M917.874,57.676l43.074,72.723l-50.906,30.152l-13.999,-23.635l-16.433,22.013l9.972,-32.921l-22.614,-38.18l50.906,-30.152Z"/><path d="M794.015,71.209c-1.839,-32.421 -29.654,-57.248 -62.074,-55.409l-50.35,2.857c-32.42,1.839 -57.248,29.654 -55.408,62.074c1.839,32.42 29.654,57.248 62.074,55.408l19.874,-1.127l-17.217,51.488l47.693,-53.217c32.42,-1.84 57.247,-29.654 55.408,-62.074Z"/><path d="M1048.25,274.616c11.365,1.842 22.088,-5.889 23.93,-17.254l2.862,-17.65c1.842,-11.365 -5.889,-22.087 -17.254,-23.93c-11.365,-1.842 -22.087,5.889 -23.93,17.254l-0.454,2.801l-15.765,-14.487l13.358,29.336c-1.842,11.365 5.889,22.087 17.253,23.93Z"/><path d="M282.723,73.135c-4.551,-16.81 5.403,-34.153 22.214,-38.704l113.134,-30.625c16.811,-4.55 34.154,5.404 38.705,22.214l16.49,60.919c4.55,16.811 -5.403,34.154 -22.214,38.704l-26.108,7.067l35.891,46.327l-61.999,-39.259l-60.918,16.49c-16.811,4.551 -34.154,-5.403 -38.705,-22.214l-16.49,-60.919Z"/><path d="M1004.95,295.111l-146.467,-105.174l-73.621,102.527l47.601,34.182l-49.86,30.793l71.83,-15.017l76.896,55.216l73.621,-102.527Z"/><path d="M151.172,347.758c-16.871,-36.355 6.327,-82.991 51.77,-104.079c45.444,-21.089 96.035,-8.694 112.906,27.661c9.97,21.484 6.216,47.696 -10.057,70.231l31.206,40.037l-52.63,-18.338c-6.265,4.722 -13.086,8.807 -20.29,12.15c-45.444,21.088 -96.035,8.693 -112.905,-27.662Z"/><path d="M115.956,179.038c-14.79,-13.414 -13.185,-39.316 3.584,-57.804c16.768,-18.488 42.39,-22.607 57.181,-9.192c8.741,7.927 12.099,20.685 8.999,34.182l22.084,12.326l-27.71,1.786c-1.96,3.382 -4.299,6.579 -6.957,9.51c-16.768,18.488 -42.39,22.607 -57.181,9.192Z"/></g><g id="b"><g id="fondo"><path d="M358.439,481.261c-0,0 -30.492,4.887 -12.705,31.665c-0,-0 26.973,11.336 30.491,-8.991c0,-0 29.906,-0.391 32.251,-23.651c0,-0 40.851,10.75 57.856,-25.214c0,-0 55.886,55.299 124.052,-8.714c0,0 37.405,29.569 89.475,7.905c33.472,-13.927 42.024,-43.979 43.978,-55.706c0,-0 54.24,-32.007 43.001,-87.957c-11.239,-55.95 -44.222,-60.592 -43.489,-60.837c-0,0 -24.677,-76.473 -101.151,-59.859c0,0 -27.852,-34.694 -74.03,-33.472c-46.177,1.221 -63.524,43.489 -63.768,43.489c-0,0 -50.331,-11.972 -86.491,24.677c-36.16,36.649 -20.767,67.433 -19.301,70.121c-0,0 -23.211,24.677 -15.149,62.058c8.063,37.382 23.211,51.308 30.785,56.439c0,0 -13.438,19.057 -8.062,35.671c-0,0 -33.986,0.495 -27.743,32.376Z" style="fill:#fff;"/></g><g id="ILUS2"><g id="azul"><path d="M363.963,507.627c-4.175,7.494 -9.354,10.578 -14.32,11.154c-3.811,0.441 -7.436,-0.695 -10.297,-2.435c-2.21,-1.343 -3.982,-3.028 -4.834,-4.766c-1.067,-2.037 -1.83,-4.486 -2.011,-7.057c-0.166,-2.378 0.132,-4.852 1.195,-7.21c1.718,-3.81 5.274,-7.285 11.611,-9.595c0.249,-0.076 0.388,-0.34 0.311,-0.588c-0.076,-0.249 -0.34,-0.388 -0.589,-0.312c-7.169,1.823 -11.378,5.34 -13.629,9.333c-1.836,3.256 -2.344,6.864 -2.034,10.251c0.223,2.448 0.924,4.772 1.847,6.791c1.113,2.282 3.315,4.652 6.261,6.331c3.527,2.01 8.072,3.116 12.633,2.211c5.426,-1.078 10.957,-4.967 14.702,-13.693c0.114,-0.233 0.018,-0.515 -0.215,-0.63c-0.234,-0.115 -0.516,-0.018 -0.631,0.215Z" style="fill:#00909e;"/><path d="M714.524,408.116c-0.721,3.684 -1.618,7.098 -2.636,10.297c-1.736,5.457 -3.895,10.208 -6.346,14.409c-1.832,3.14 -3.835,5.952 -5.971,8.497c-1.515,1.807 -3.099,3.47 -4.727,5.026c-1.697,1.622 -3.439,3.126 -5.235,4.51c-2.814,2.169 -5.737,4.056 -8.726,5.713c-8.217,4.556 -16.869,7.391 -24.682,9.537c-0.253,0.059 -0.411,0.313 -0.352,0.566c0.059,0.253 0.313,0.41 0.566,0.351c4.984,-0.945 10.322,-2.094 15.713,-3.804c3.392,-1.076 6.792,-2.372 10.134,-3.96c3.247,-1.543 6.433,-3.36 9.478,-5.527c1.968,-1.401 3.877,-2.948 5.691,-4.669c1.745,-1.655 3.402,-3.473 4.959,-5.453c2.177,-2.768 4.164,-5.853 5.905,-9.291c1.19,-2.351 2.263,-4.864 3.201,-7.559c1.887,-5.427 3.233,-11.553 3.959,-18.504c0.038,-0.257 -0.139,-0.497 -0.396,-0.535c-0.257,-0.038 -0.497,0.139 -0.535,0.396Z" style="fill:#00909e;"/><path d="M613.596,195.307c5.486,-1.249 10.763,-2.053 15.84,-2.483c8.51,-0.721 16.424,-0.302 23.762,1.089c5.331,1.011 10.345,2.545 15.054,4.555c3.242,1.384 6.333,2.997 9.289,4.808c2.98,1.827 5.822,3.852 8.515,6.089c4.001,3.323 7.676,7.09 11.019,11.273c7.825,9.79 13.838,21.797 17.795,35.487c0.066,0.251 0.323,0.402 0.575,0.336c0.251,-0.065 0.402,-0.323 0.336,-0.574c-1.914,-8.256 -4.552,-15.976 -7.929,-23.026c-2.42,-5.052 -5.217,-9.752 -8.376,-14.059c-3.306,-4.51 -7.009,-8.587 -11.098,-12.162c-2.779,-2.428 -5.736,-4.628 -8.873,-6.56c-3.116,-1.92 -6.41,-3.578 -9.862,-4.966c-4.981,-2.004 -10.297,-3.452 -15.924,-4.29c-3.944,-0.587 -8.039,-0.872 -12.284,-0.835c-8.749,0.077 -18.113,1.51 -28.075,4.407c-0.252,0.065 -0.403,0.322 -0.338,0.574c0.065,0.252 0.323,0.403 0.574,0.337Z" style="fill:#00909e;"/><path d="M476.835,203.098c3.379,-5.216 7.723,-9.939 12.756,-14.16c7.039,-5.903 15.454,-10.754 24.546,-14.477c5.829,-2.386 11.933,-4.3 18.142,-5.711c4.135,-0.94 8.314,-1.653 12.486,-2.146c4.234,-0.501 8.459,-0.778 12.628,-0.788c6.486,-0.015 12.826,0.597 18.826,1.917c16.118,3.546 29.737,12.191 36.738,27.222c0.105,0.238 0.383,0.346 0.621,0.242c0.238,-0.105 0.346,-0.383 0.242,-0.621c-6.583,-15.886 -20.327,-25.508 -36.899,-29.783c-6.181,-1.595 -12.76,-2.43 -19.499,-2.556c-4.319,-0.081 -8.706,0.13 -13.094,0.64c-4.314,0.502 -8.629,1.292 -12.885,2.339c-6.373,1.566 -12.618,3.709 -18.542,6.366c-4.529,2.032 -8.867,4.367 -12.932,6.979c-10.08,6.479 -18.475,14.625 -23.937,24.045c-0.136,0.221 -0.066,0.512 0.156,0.647c0.221,0.136 0.511,0.066 0.647,-0.155Z" style="fill:#00909e;"/><path d="M371.833,295.669c-1.483,-5.203 -2.193,-12.217 -1.77,-20.077c0.491,-9.139 2.566,-19.402 6.836,-29.3c2.564,-5.944 5.925,-11.749 10.236,-17.099c2.705,-3.358 5.787,-6.53 9.272,-9.459c3.268,-2.746 6.888,-5.279 10.914,-7.52c5.438,-3.026 11.599,-5.524 18.581,-7.335c13.553,-3.515 30.141,-4.475 50.392,-1.585c0.256,0.042 0.498,-0.132 0.54,-0.388c0.042,-0.257 -0.132,-0.499 -0.388,-0.541c-11.282,-2.099 -21.479,-2.975 -30.692,-2.8c-7.491,0.142 -14.329,0.976 -20.561,2.376c-7.342,1.649 -13.847,4.085 -19.581,7.128c-4.295,2.279 -8.162,4.899 -11.616,7.79c-3.688,3.088 -6.909,6.485 -9.708,10.079c-4.421,5.677 -7.799,11.852 -10.286,18.159c-2.643,6.701 -4.28,13.548 -5.129,20.105c-1.579,12.182 -0.43,23.347 2.061,30.747c0.077,0.248 0.341,0.387 0.589,0.31c0.249,-0.078 0.387,-0.342 0.31,-0.59Z" style="fill:#00909e;"/><path d="M385.492,416.761c-4.388,-3.242 -8.345,-6.972 -11.888,-11.072c-5.27,-6.099 -9.544,-13.044 -12.799,-20.504c-2.138,-4.899 -3.826,-10.016 -5.05,-15.271c-0.808,-3.47 -1.409,-6.997 -1.817,-10.559c-0.406,-3.54 -0.623,-7.111 -0.617,-10.698c0.009,-5.338 0.496,-10.7 1.506,-16.016c2.438,-12.834 7.889,-25.373 16.935,-36.42c0.17,-0.197 0.148,-0.495 -0.049,-0.664c-0.197,-0.17 -0.495,-0.148 -0.665,0.049c-5.797,6.367 -10.366,13.323 -13.761,20.638c-2.374,5.117 -4.169,10.403 -5.418,15.77c-1.275,5.481 -1.98,11.044 -2.127,16.593c-0.099,3.741 0.053,7.477 0.467,11.17c0.418,3.718 1.1,7.395 2.018,10.997c1.386,5.44 3.311,10.715 5.731,15.721c1.827,3.777 3.937,7.398 6.315,10.822c5.546,7.982 12.512,14.887 20.683,20.218c0.213,0.148 0.507,0.095 0.655,-0.119c0.148,-0.214 0.095,-0.507 -0.119,-0.655Z" style="fill:#00909e;"/><path d="M375.535,454.083c-0.267,-1.557 -0.372,-3.118 -0.399,-4.711c-0.039,-2.337 0.192,-4.664 0.544,-6.987c0.233,-1.544 0.536,-3.065 0.875,-4.568c0.23,-1.017 0.487,-2.018 0.732,-3.01c0.398,-1.614 0.8,-3.187 1.257,-4.687c0.498,-1.637 1.014,-3.183 1.572,-4.612c1.576,-4.031 3.309,-7.064 4.896,-8.19c0.224,-0.131 0.3,-0.419 0.169,-0.644c-0.131,-0.224 -0.419,-0.3 -0.644,-0.169c-1.512,0.704 -3.416,2.592 -5.331,5.351c-0.874,1.261 -1.728,2.697 -2.543,4.287c-0.725,1.416 -1.406,2.941 -2.006,4.563c-0.377,1.022 -0.722,2.081 -1.005,3.172c-0.277,1.063 -0.495,2.156 -0.665,3.265c-0.25,1.637 -0.399,3.304 -0.43,4.983c-0.023,1.254 0.017,2.502 0.134,3.751c0.274,2.92 0.897,5.756 1.937,8.458c0.069,0.25 0.329,0.397 0.58,0.328c0.25,-0.07 0.397,-0.33 0.327,-0.58Z" style="fill:#00909e;"/><path d="M364.417,508.109c2.812,0.511 6.013,0.863 9.402,0.686c1.353,-0.07 2.719,-0.238 4.098,-0.512c1.79,-0.355 3.578,-0.903 5.328,-1.672c1.127,-0.496 2.237,-1.09 3.303,-1.803c1.019,-0.682 1.999,-1.471 2.929,-2.366c1.286,-1.236 2.487,-2.659 3.569,-4.303c0.957,-1.452 1.829,-3.054 2.58,-4.853c0.955,-2.287 1.718,-4.841 2.284,-7.741c0.071,-0.25 -0.074,-0.51 -0.324,-0.582c-0.25,-0.071 -0.511,0.074 -0.582,0.324c-1.736,4.664 -3.95,8.213 -6.376,11.037c-1.131,1.317 -2.315,2.444 -3.53,3.444c-0.86,0.707 -1.741,1.332 -2.624,1.913c-0.925,0.609 -1.853,1.164 -2.797,1.654c-1.501,0.779 -3.018,1.413 -4.551,1.916c-2.518,0.827 -5.02,1.347 -7.434,1.615c-1.827,0.202 -3.561,0.303 -5.189,0.305c-0.259,-0.024 -0.488,0.167 -0.512,0.426c-0.024,0.258 0.167,0.488 0.426,0.512Z" style="fill:#00909e;"/><path d="M397.5,485.824c0,0 2.642,0.937 6.464,1.555c1.371,0.222 2.869,0.388 4.452,0.435c1.232,0.036 2.503,0.004 3.769,-0.159c1.268,-0.164 2.526,-0.459 3.734,-0.857c1.256,-0.413 2.454,-0.93 3.555,-1.589c2.648,-1.586 4.751,-3.755 5.765,-6.794c0.11,-0.235 0.009,-0.516 -0.226,-0.626c-0.235,-0.111 -0.516,-0.009 -0.627,0.226c-1.55,2.505 -3.962,3.851 -6.678,4.733c-1.46,0.474 -3.005,0.733 -4.57,0.978c-1.05,0.165 -2.102,0.324 -3.142,0.458c-1.688,0.217 -3.323,0.397 -4.846,0.507c-4.262,0.308 -7.47,0.208 -7.47,0.208c-0.255,-0.049 -0.503,0.118 -0.552,0.373c-0.05,0.255 0.117,0.503 0.372,0.552Z" style="fill:#00909e;"/><path d="M346.472,488.738c0.036,-1.948 0.187,-3.933 0.455,-5.95c0.378,-2.85 1.065,-5.69 2.144,-8.451c0.677,-1.732 1.525,-3.41 2.568,-5.033c0.658,-1.024 1.402,-2.016 2.223,-2.991c0.779,-0.926 1.624,-1.837 2.572,-2.714c1.319,-1.22 2.804,-2.387 4.515,-3.476c3.56,-2.268 7.968,-4.244 13.584,-5.661c0.256,-0.046 0.426,-0.291 0.38,-0.547c-0.046,-0.256 -0.291,-0.426 -0.547,-0.38c-3.363,0.353 -6.356,0.92 -9.054,1.702c-2.146,0.622 -4.078,1.383 -5.838,2.247c-2.035,0.998 -3.818,2.146 -5.381,3.407c-1.157,0.934 -2.188,1.936 -3.093,2.996c-0.958,1.123 -1.775,2.312 -2.47,3.54c-1.078,1.905 -1.879,3.895 -2.435,5.929c-0.42,1.539 -0.709,3.092 -0.875,4.656c-0.392,3.679 -0.173,7.331 0.312,10.784c0.016,0.26 0.24,0.457 0.5,0.441c0.259,-0.016 0.456,-0.24 0.44,-0.499Z" style="fill:#00909e;"/><path d="M715.396,256.488c5.404,1.153 12.428,5.406 19.552,11.861c7.612,6.896 15.287,16.336 21.186,27.304c3.567,6.633 6.477,13.824 8.31,21.37c1.188,4.891 1.917,9.927 2.091,15.059c0.168,4.964 -0.181,10.015 -1.183,15.112c-1.386,7.047 -4.002,14.17 -8.145,21.256c-7.893,13.498 -21.244,26.834 -42.081,39.073c-0.227,0.128 -0.307,0.415 -0.179,0.642c0.127,0.226 0.415,0.306 0.641,0.179c11.795,-6.356 21.346,-13.121 28.954,-20.159c6.383,-5.905 11.402,-12 15.252,-18.171c4.558,-7.307 7.481,-14.731 9.064,-22.099c1.152,-5.367 1.596,-10.71 1.427,-15.957c-0.174,-5.396 -0.995,-10.693 -2.318,-15.818c-2.017,-7.809 -5.198,-15.226 -9.095,-22.01c-6.358,-11.069 -14.598,-20.46 -22.663,-27.226c-7.584,-6.362 -15.027,-10.386 -20.636,-11.341c-0.255,-0.049 -0.502,0.119 -0.551,0.374c-0.049,0.255 0.118,0.502 0.374,0.551Z" style="fill:#00909e;"/><path d="M584.936,451.479c-2.784,3.83 -6.875,7.855 -11.949,11.718c-6.04,4.598 -13.49,8.908 -21.842,12.317c-5.01,2.045 -10.342,3.759 -15.9,5.003c-3.563,0.798 -7.216,1.398 -10.936,1.784c-3.629,0.376 -7.318,0.549 -11.053,0.457c-5.416,-0.134 -10.917,-0.81 -16.444,-2.162c-12.249,-2.996 -24.597,-9.262 -36.227,-20.196c-0.185,-0.182 -0.484,-0.18 -0.666,0.004c-0.183,0.185 -0.181,0.484 0.004,0.666c6.464,6.728 13.241,11.924 20.186,15.806c5.243,2.93 10.577,5.107 15.924,6.641c5.713,1.639 11.441,2.543 17.092,2.818c3.903,0.19 7.77,0.083 11.566,-0.302c3.88,-0.393 7.685,-1.074 11.383,-1.98c5.73,-1.404 11.205,-3.347 16.311,-5.661c5.459,-2.475 10.491,-5.375 14.975,-8.478c8.25,-5.712 14.624,-12.111 18.353,-17.904c0.147,-0.214 0.092,-0.507 -0.123,-0.654c-0.214,-0.147 -0.508,-0.092 -0.654,0.123Z" style="fill:#00909e;"/></g><g id="rojo"><path d="M367.159,377.447c-0.908,-2.847 -1.768,-5.98 -2.504,-9.36c-0.954,-4.384 -1.629,-9.164 -1.818,-14.264c-0.113,-3.061 -0.041,-6.228 0.262,-9.498c0.19,-2.047 0.476,-4.131 0.85,-6.255c0.357,-2.022 0.789,-4.08 1.338,-6.171c0.773,-2.947 1.758,-5.952 3.009,-9.019c2.718,-6.66 6.632,-13.578 12.303,-20.62c0.171,-0.195 0.152,-0.493 -0.043,-0.664c-0.196,-0.172 -0.494,-0.153 -0.665,0.043c-3.668,3.811 -6.766,7.612 -9.354,11.421c-1.95,2.87 -3.6,5.733 -4.997,8.579c-1.533,3.123 -2.755,6.221 -3.696,9.28c-0.672,2.186 -1.203,4.353 -1.588,6.493c-0.406,2.248 -0.653,4.466 -0.778,6.641c-0.2,3.447 -0.098,6.786 0.234,9.991c0.355,3.427 0.971,6.691 1.745,9.779c1.309,5.219 3.07,9.894 4.82,13.955c0.092,0.243 0.363,0.366 0.607,0.275c0.243,-0.091 0.366,-0.363 0.275,-0.606Z" style="fill:#9e0004;"/><path d="M380.722,301.735c-1.308,-6.66 -1.77,-13.372 -1.481,-19.986c0.44,-10.113 2.712,-19.966 6.593,-29.015c2.617,-6.105 5.973,-11.832 10.019,-17.019c2.693,-3.453 5.693,-6.659 8.976,-9.587c3.243,-2.892 6.758,-5.512 10.557,-7.793c5.489,-3.296 11.551,-5.892 18.168,-7.629c14.107,-3.703 30.678,-3.534 49.384,2.124c0.247,0.08 0.513,-0.055 0.594,-0.303c0.08,-0.247 -0.056,-0.513 -0.303,-0.593c-10.614,-3.711 -20.615,-5.622 -29.929,-5.986c-7.254,-0.283 -14.089,0.372 -20.463,1.821c-6.995,1.59 -13.438,4.139 -19.263,7.479c-4.055,2.325 -7.813,5.033 -11.239,8.077c-3.464,3.077 -6.589,6.497 -9.364,10.181c-4.138,5.492 -7.503,11.575 -10.037,18.04c-1.869,4.769 -3.284,9.745 -4.222,14.848c-2.119,11.535 -1.822,23.693 1.09,35.545c0.057,0.254 0.308,0.414 0.562,0.358c0.254,-0.056 0.414,-0.308 0.358,-0.562Z" style="fill:#9e0004;"/><path d="M483.596,212.461c1.836,-5.666 5.197,-11.165 9.697,-16.215c5.888,-6.608 13.763,-12.387 22.825,-16.692c5.564,-2.642 11.572,-4.719 17.86,-6.075c4.048,-0.873 8.21,-1.441 12.442,-1.683c4.126,-0.235 8.317,-0.162 12.539,0.29c6.081,0.651 12.216,2.069 18.294,4.402c13.081,5.022 25.868,14.226 37.079,29.022c0.153,0.211 0.447,0.258 0.658,0.105c0.21,-0.152 0.258,-0.447 0.105,-0.657c-6.089,-8.83 -12.77,-15.867 -19.819,-21.326c-5.454,-4.223 -11.124,-7.5 -16.889,-9.946c-6.273,-2.662 -12.661,-4.34 -19.01,-5.155c-4.424,-0.568 -8.832,-0.719 -13.167,-0.481c-4.438,0.244 -8.8,0.896 -13.029,1.886c-6.531,1.529 -12.748,3.865 -18.455,6.811c-4.476,2.31 -8.636,4.998 -12.391,7.968c-9.878,7.815 -16.956,17.54 -19.642,27.478c-0.074,0.249 0.069,0.511 0.318,0.585c0.249,0.074 0.512,-0.068 0.585,-0.317Z" style="fill:#9e0004;"/><path d="M614.876,205.772c4.864,-0.856 9.824,-1.233 14.807,-1.197c7.367,0.054 14.754,1.086 21.917,2.977c4.747,1.254 9.385,2.892 13.848,4.895c2.979,1.337 5.874,2.839 8.677,4.486c2.811,1.652 5.529,3.448 8.119,5.41c3.894,2.951 7.503,6.258 10.738,9.933c7.828,8.894 13.478,19.891 15.621,32.939c0.035,0.257 0.273,0.438 0.53,0.403c0.258,-0.035 0.438,-0.272 0.403,-0.53c-1.459,-13.545 -6.606,-25.23 -14.239,-34.756c-3.207,-4.002 -6.86,-7.613 -10.853,-10.813c-2.659,-2.13 -5.47,-4.078 -8.414,-5.818c-2.927,-1.731 -5.986,-3.256 -9.133,-4.584c-4.687,-1.977 -9.575,-3.518 -14.563,-4.611c-3.726,-0.816 -7.506,-1.378 -11.303,-1.683c-8.874,-0.713 -17.813,-0.042 -26.348,2.028c-0.255,0.053 -0.418,0.303 -0.364,0.557c0.053,0.255 0.303,0.418 0.557,0.364Z" style="fill:#9e0004;"/><path d="M709.089,265.681c5.314,1.485 11.941,5.329 18.538,10.963c7.438,6.352 14.791,15.011 20.133,25.236c3.239,6.198 5.729,12.971 7.027,20.177c0.821,4.558 1.159,9.286 0.922,14.154c-0.222,4.555 -0.944,9.231 -2.285,14.006c-1.785,6.356 -4.648,12.878 -8.819,19.515c-7.822,12.447 -20.169,25.276 -38.583,37.986c-0.217,0.143 -0.276,0.436 -0.133,0.652c0.144,0.217 0.436,0.276 0.653,0.133c10.495,-6.652 19.159,-13.399 26.211,-20.189c5.857,-5.64 10.604,-11.305 14.386,-16.934c4.57,-6.8 7.733,-13.555 9.722,-20.163c1.516,-5.036 2.351,-9.992 2.595,-14.82c0.261,-5.166 -0.154,-10.188 -1.1,-15.011c-1.479,-7.538 -4.252,-14.599 -7.841,-20.999c-4.77,-8.505 -10.971,-15.843 -17.42,-21.643c-8.358,-7.518 -17.135,-12.431 -23.772,-13.976c-0.252,-0.064 -0.509,0.088 -0.573,0.34c-0.065,0.252 0.087,0.508 0.339,0.573Z" style="fill:#9e0004;"/><path d="M705.813,408.241c-0.498,5.858 -2.432,12.251 -5.562,18.646c-3.99,8.151 -9.972,16.261 -17.519,23.231c-4.658,4.301 -9.914,8.158 -15.687,11.311c-3.72,2.031 -7.653,3.763 -11.777,5.145c-3.989,1.338 -8.153,2.35 -12.49,2.946c-6.11,0.84 -12.547,0.868 -19.277,-0.113c-13.692,-1.997 -28.556,-8.116 -44.152,-20.047c-0.203,-0.162 -0.499,-0.129 -0.662,0.074c-0.162,0.203 -0.129,0.5 0.074,0.662c8.545,7.147 16.934,12.461 25.098,16.196c6.552,2.998 12.954,4.979 19.153,6.098c7.023,1.269 13.789,1.43 20.217,0.681c4.591,-0.535 9.014,-1.534 13.229,-2.938c4.346,-1.448 8.474,-3.326 12.355,-5.532c5.971,-3.395 11.365,-7.57 16.082,-12.217c3.668,-3.613 6.925,-7.512 9.73,-11.554c7.478,-10.778 11.761,-22.526 12.128,-32.533c0.016,-0.259 -0.182,-0.482 -0.441,-0.498c-0.26,-0.016 -0.483,0.182 -0.499,0.442Z" style="fill:#9e0004;"/><path d="M578.589,449.514c-1.833,2.897 -4.384,5.929 -7.572,8.888c-3.86,3.581 -8.679,6.987 -14.357,9.839c-3.294,1.654 -6.875,3.11 -10.736,4.3c-2.385,0.734 -4.876,1.361 -7.47,1.884c-2.449,0.494 -4.988,0.899 -7.624,1.173c-3.688,0.383 -7.555,0.524 -11.612,0.365c-8.743,-0.344 -18.324,-2.044 -28.715,-5.762c-0.242,-0.096 -0.516,0.022 -0.612,0.263c-0.096,0.242 0.022,0.516 0.264,0.612c5.881,2.6 11.533,4.535 16.968,5.868c4.098,1.006 8.062,1.667 11.888,2.035c4.219,0.405 8.266,0.452 12.128,0.185c2.783,-0.193 5.471,-0.548 8.051,-1.06c2.739,-0.543 5.358,-1.261 7.853,-2.108c4.026,-1.368 7.731,-3.07 11.1,-4.995c2.746,-1.569 5.264,-3.285 7.551,-5.093c6.418,-5.073 11.015,-10.795 13.711,-15.923c0.13,-0.225 0.053,-0.514 -0.172,-0.644c-0.225,-0.129 -0.514,-0.052 -0.644,0.173Z" style="fill:#9e0004;"/><path d="M351.18,477.433c-0.186,-1.747 -0.288,-4.87 0.63,-8.518c0.993,-3.941 3.165,-8.517 7.624,-12.513c4.476,-4.009 11.302,-7.443 21.669,-9.035c0.254,-0.051 0.502,0.115 0.553,0.37c0.05,0.255 -0.116,0.503 -0.371,0.554c-9.685,2.344 -15.854,6.118 -19.83,10.214c-3.641,3.75 -5.304,7.793 -6.074,11.256c-1.057,4.758 -0.367,8.402 -0.367,8.402c0.186,0.882 -0.294,1.77 -1.134,2.097c-3.32,1.206 -6.177,3.143 -8.483,5.441c-2.565,2.558 -4.465,5.543 -5.46,8.58c-1.546,4.722 -0.988,9.491 2.511,12.622c0.202,0.164 0.233,0.461 0.069,0.663c-0.164,0.201 -0.461,0.232 -0.662,0.068c-5.236,-3.862 -5.826,-10.99 -2.934,-17.639c1.461,-3.357 3.846,-6.568 6.952,-9.166c1.582,-1.324 3.365,-2.465 5.307,-3.396Z" style="fill:#9e0004;"/><path d="M371.594,500.632c-0,-0 1.411,0.985 3.764,1.976c1.176,0.495 2.553,0.963 4.109,1.293c1.102,0.234 2.275,0.365 3.496,0.383c0.78,0.012 1.58,-0.028 2.378,-0.16c1.438,-0.239 2.884,-0.702 4.272,-1.414c1.195,-0.613 2.343,-1.384 3.412,-2.389c1.355,-1.275 2.564,-2.828 3.603,-4.811c0.15,-0.212 0.1,-0.507 -0.112,-0.657c-0.212,-0.15 -0.506,-0.1 -0.656,0.112c-1.319,1.412 -2.695,2.409 -4.086,3.233c-1.528,0.904 -3.071,1.416 -4.598,1.79c-0.974,0.238 -1.936,0.376 -2.879,0.496c-1.016,0.129 -2.003,0.237 -2.964,0.271c-1.317,0.048 -2.55,0.041 -3.69,-0.048c-3.312,-0.256 -5.635,-0.921 -5.635,-0.921c-0.234,-0.114 -0.516,-0.017 -0.63,0.216c-0.115,0.234 -0.018,0.516 0.216,0.63Z" style="fill:#9e0004;"/><path d="M344.528,509.887c-0,0 1.784,1.613 4.555,3.26c1.501,0.892 3.267,1.765 5.188,2.394c1.503,0.491 3.091,0.795 4.683,0.857c1.109,0.043 2.223,-0.053 3.306,-0.307c0.821,-0.193 1.628,-0.479 2.396,-0.876c1.612,-0.833 3.116,-2.066 4.341,-3.869c0.799,-1.177 1.506,-2.568 2.035,-4.258c0.585,-1.867 0.976,-4.045 1.14,-6.648c0.043,-0.256 -0.131,-0.499 -0.387,-0.542c-0.256,-0.042 -0.499,0.131 -0.542,0.388c-0.937,3.47 -2.181,6.006 -3.574,7.925c-0.692,0.952 -1.442,1.694 -2.205,2.323c-1.267,1.043 -2.648,1.583 -4.058,1.903c-1.282,0.291 -2.59,0.397 -3.902,0.327c-1.419,-0.075 -2.822,-0.282 -4.159,-0.594c-4.573,-1.063 -8.271,-3.05 -8.271,-3.05c-0.212,-0.151 -0.506,-0.101 -0.657,0.111c-0.151,0.211 -0.101,0.506 0.111,0.656Z" style="fill:#9e0004;"/></g><g id="NEGRO"><path d="M379.26,294.057c-1.708,-3.413 -2.293,-9.059 -1.756,-15.918c0.554,-7.072 2.464,-15.339 5.879,-23.821c2.407,-5.978 5.629,-11.992 9.678,-17.777c3.69,-5.271 8.135,-10.267 13.372,-14.83c3.119,-2.718 6.486,-5.316 10.207,-7.664c5.165,-3.26 10.931,-6.096 17.439,-8.321c13.322,-4.554 29.501,-6.711 49.302,-4.795c0.642,0.095 1.242,-0.349 1.337,-0.992c0.096,-0.643 -0.349,-1.242 -0.991,-1.337c-11.288,-2.314 -21.54,-3.234 -30.904,-2.965c-7.56,0.217 -14.499,1.23 -20.883,2.84c-7.383,1.863 -13.994,4.567 -19.885,7.885c-4.325,2.436 -8.258,5.219 -11.785,8.277c-3.723,3.229 -6.998,6.768 -9.864,10.479c-4.534,5.87 -8.086,12.157 -10.727,18.506c-3.664,8.811 -5.642,17.671 -6.33,25.629c-1.002,11.598 0.714,21.196 3.873,25.984c0.325,0.562 1.046,0.755 1.609,0.429c0.562,-0.326 0.754,-1.047 0.429,-1.609Z" style="fill:#0d0d0d;"/><path d="M484.815,200.105c1.27,-3.855 5.383,-9.195 11.477,-14.779c6.087,-5.578 14.22,-11.187 23.725,-15.635c5.458,-2.555 11.364,-4.677 17.631,-6.153c3.923,-0.924 7.983,-1.569 12.163,-1.932c3.986,-0.346 8.077,-0.446 12.277,-0.159c5.887,0.401 11.96,1.482 18.214,3.489c12.919,4.148 26.504,11.947 40.304,25.27c0.443,0.475 1.189,0.501 1.664,0.058c0.476,-0.443 0.502,-1.188 0.059,-1.664c-7.131,-8.581 -14.36,-15.392 -21.664,-20.71c-5.909,-4.301 -11.847,-7.578 -17.738,-10.041c-6.761,-2.826 -13.462,-4.524 -19.999,-5.311c-4.735,-0.571 -9.388,-0.649 -13.905,-0.279c-4.711,0.385 -9.277,1.258 -13.647,2.489c-6.832,1.924 -13.208,4.688 -18.972,7.992c-7.939,4.551 -14.72,10.032 -20.098,15.524c-7.926,8.094 -12.755,16.132 -13.769,21.243c-0.165,0.629 0.212,1.273 0.84,1.438c0.629,0.165 1.273,-0.212 1.438,-0.84Z" style="fill:#0d0d0d;"/><path d="M622.715,190.331c3.878,-0.999 8.956,-1.429 14.833,-1.207c6.559,0.248 13.991,1.511 21.81,3.959c4.449,1.394 8.981,3.208 13.547,5.472c2.819,1.398 5.63,2.985 8.456,4.727c2.68,1.653 5.373,3.434 8.031,5.433c3.748,2.82 7.444,5.996 11.023,9.664c7.794,7.988 15.069,18.008 20.961,31.021c0.227,0.608 0.906,0.918 1.515,0.69c0.608,-0.227 0.918,-0.906 0.69,-1.515c-2.389,-8.151 -5.327,-15.369 -8.772,-21.815c-2.637,-4.932 -5.565,-9.347 -8.697,-13.346c-3.471,-4.435 -7.202,-8.304 -11.108,-11.668c-2.811,-2.421 -5.717,-4.57 -8.694,-6.432c-3.144,-1.966 -6.367,-3.615 -9.597,-5.001c-5.177,-2.221 -10.363,-3.795 -15.414,-4.818c-4.114,-0.834 -8.111,-1.318 -11.949,-1.491c-11.417,-0.515 -21.144,1.405 -27.401,4.1c-0.614,0.211 -0.942,0.882 -0.73,1.496c0.211,0.615 0.881,0.942 1.496,0.731Z" style="fill:#0d0d0d;"/><path d="M722.407,250.606c5.313,1.382 11.276,5.753 17.093,12.091c6.38,6.951 12.367,16.349 16.914,27.096c2.678,6.331 4.809,13.124 6.178,20.197c0.875,4.521 1.415,9.148 1.608,13.844c0.188,4.564 0.057,9.187 -0.544,13.844c-0.862,6.672 -2.606,13.39 -5.531,20.058c-6.127,13.965 -17.11,27.646 -35.165,39.809c-0.555,0.338 -0.732,1.062 -0.395,1.618c0.337,0.555 1.062,0.732 1.618,0.395c11.158,-6.029 20.088,-12.76 27.14,-19.999c5.745,-5.897 10.197,-12.129 13.599,-18.518c3.829,-7.191 6.273,-14.6 7.58,-22.013c0.917,-5.205 1.259,-10.42 1.071,-15.558c-0.192,-5.23 -0.935,-10.384 -2.102,-15.376c-1.788,-7.652 -4.544,-14.944 -7.961,-21.618c-3.652,-7.13 -8.018,-13.549 -12.686,-19.006c-9.345,-10.926 -19.762,-17.966 -27.95,-19.172c-0.637,-0.129 -1.259,0.284 -1.388,0.921c-0.128,0.637 0.284,1.258 0.921,1.387Z" style="fill:#0d0d0d;"/><path d="M722.3,398.547c-1.075,6.05 -3.502,12.155 -6.955,18.117c-4.562,7.878 -11.068,15.291 -18.956,21.708c-4.834,3.933 -10.199,7.434 -16.001,10.399c-3.71,1.897 -7.6,3.547 -11.638,4.97c-3.918,1.382 -7.969,2.556 -12.171,3.409c-6.054,1.23 -12.378,1.86 -18.972,1.691c-14.509,-0.371 -30.162,-4.363 -46.428,-13.823c-0.544,-0.355 -1.275,-0.202 -1.63,0.342c-0.355,0.544 -0.202,1.274 0.342,1.629c9.023,6.636 18.019,11.435 26.919,14.663c6.869,2.491 13.65,4.004 20.278,4.729c7.248,0.794 14.297,0.599 21.049,-0.419c4.736,-0.714 9.326,-1.845 13.711,-3.367c4.507,-1.564 8.8,-3.542 12.842,-5.828c6.248,-3.534 11.92,-7.784 16.885,-12.525c3.877,-3.701 7.326,-7.678 10.288,-11.852c7.635,-10.761 12.145,-22.557 12.776,-33.573c0.075,-0.645 -0.388,-1.23 -1.034,-1.305c-0.645,-0.074 -1.23,0.389 -1.305,1.035Z" style="fill:#0d0d0d;"/><path d="M379.071,506.886c-1.322,2.356 -3.938,6.351 -7.747,9.174c-2.633,1.951 -5.784,3.394 -9.43,3.504c-5.036,0.143 -9.449,-0.895 -13.042,-2.757c-4.451,-2.307 -7.685,-5.792 -9.308,-9.762c-1.833,-4.482 -2.845,-12.258 2.512,-18.638c2.993,-3.566 8.018,-6.755 16.228,-8.475c0.632,-0.152 1.269,0.237 1.421,0.868c0.152,0.632 -0.237,1.269 -0.869,1.421c-7.234,1.976 -11.613,4.97 -14.101,8.306c-3.919,5.254 -2.814,11.307 -1.182,14.749c1.397,2.945 4.023,5.426 7.497,6.992c2.946,1.328 6.517,1.934 10.527,1.602c3.027,-0.244 5.416,-1.95 7.287,-3.848c3.354,-3.405 5.002,-7.683 5.002,-7.683c0.492,-1.178 1.608,-1.976 2.881,-2.061c8.816,-0.781 14.928,-2.871 19.161,-5.509c9.151,-5.703 8.296,-14.106 8.296,-14.106c-0.158,-1.438 0.427,-2.858 1.552,-3.768c1.126,-0.91 2.636,-1.184 4.01,-0.729c12.698,4.042 22.846,2.535 30.763,-1.119c15.096,-6.966 22.139,-21.806 22.139,-21.806c0.591,-1.283 1.749,-2.215 3.128,-2.52c1.38,-0.304 2.822,0.055 3.898,0.971c10.411,9.152 21.989,15.354 34.096,18.633c8.473,2.294 17.189,3.196 25.979,2.616c20.439,-1.348 41.151,-10.444 59.612,-27.602c0.463,-0.456 1.209,-0.451 1.665,0.012c0.457,0.462 0.451,1.209 -0.012,1.665c-18.227,19.053 -39.397,29.74 -60.676,32.278c-11.911,1.42 -23.858,0.256 -35.351,-3.401c-9.354,-2.976 -18.377,-7.666 -26.863,-13.961c-3.753,6.01 -11.477,16.06 -23.736,21.605c-8.555,3.869 -19.301,5.57 -32.299,2.212c-0.88,3.72 -3.028,8.571 -8.129,12.771c-4.837,3.983 -12.527,7.518 -24.909,8.366Z" style="fill:#0d0d0d;"/><path d="M388.697,413.359c-6.1,-4.809 -11.53,-10.738 -15.945,-17.564c-7.278,-11.252 -12.002,-24.761 -13.716,-38.558c-2.849,-22.938 2.629,-46.72 18.442,-63.005c0.434,-0.484 1.179,-0.524 1.662,-0.09c0.484,0.434 0.525,1.179 0.091,1.662c-13.582,16.406 -16.73,38.954 -12.727,60.269c2.342,12.467 7.259,24.428 14.047,34.596c4.676,7.004 10.155,13.232 16.637,17.893c0.974,0.689 1.631,1.738 1.824,2.915c0.194,1.176 -0.092,2.381 -0.793,3.345c-0,-0 -5.169,6.795 -7.937,15.929c-1.582,5.222 -2.494,11.212 -0.935,17.16c0.289,0.97 0.122,2.02 -0.455,2.852c-0.577,0.832 -1.501,1.356 -2.511,1.425c-0,-0 -12.624,0.264 -20.624,7.604c-4.592,4.213 -7.605,10.706 -5.999,20.766c0.132,0.636 -0.277,1.26 -0.913,1.393c-0.636,0.132 -1.26,-0.277 -1.392,-0.913c-2.94,-11.424 0.157,-19.191 5.023,-24.52c5.838,-6.394 14.52,-9.162 19.519,-10.283c-1.257,-6.036 -0.716,-12.123 0.596,-17.573c1.542,-6.403 4.188,-11.882 6.106,-15.303Z" style="fill:#0d0d0d;"/></g></g><g id="TEXT"><path d="M542.375,324.337l-0,-2.253c-0,-1.897 1.397,-3.504 3.275,-3.769c1.404,-0.195 2.462,-0.54 3.175,-1.034c1.189,-0.823 1.784,-2.241 1.784,-4.254l-0,-73.372c-0,-0.597 -0.238,-1.17 -0.66,-1.593c-0.423,-0.422 -0.996,-0.66 -1.593,-0.66c-5.075,0 -16.961,0 -16.961,0c-1.462,0 -3.808,1.155 -6.078,2.743c-1.096,0.756 -2.53,0.809 -3.679,0.136c-1.149,-0.673 -1.804,-1.95 -1.681,-3.276c-0.008,-0.001 -0.008,-0.001 -0.008,-0.001c0.421,-4.515 4.209,-7.967 8.743,-7.967l57.87,-0c4.515,-0 8.291,3.432 8.72,7.927c0,-0 0,-0 0,0c0.124,1.296 -0.506,2.548 -1.619,3.222c-1.114,0.674 -2.516,0.651 -3.606,-0.06c-2.384,-1.58 -4.912,-2.724 -6.511,-2.724l-16.96,0c-0.598,0 -1.171,0.238 -1.593,0.66c-0.423,0.423 -0.66,0.996 -0.66,1.593c-0,12.56 -0,73.372 -0,73.372c-0,2.013 0.594,3.431 1.784,4.254c0.713,0.494 1.771,0.839 3.174,1.037c1.877,0.264 3.273,1.871 3.273,3.766c0.003,1.206 0.003,2.253 0.003,2.253l-30.192,0Z" style="fill:#0d0d0d;fill-rule:nonzero;"/><path d="M557.794,319.919c12.763,-0 23.731,4.551 32.903,13.655c9.172,9.103 13.758,19.922 13.758,32.457c-0,12.534 -4.586,23.49 -13.758,32.868c-9.172,9.378 -19.225,14.067 -30.158,14.067c6.038,0 8.524,-0.032 13.464,0.882c4.941,0.915 7.542,2.437 15.285,3.183c5.682,0.547 11.195,0.052 14.912,-0.48c0.331,-0.052 0.651,0.148 0.748,0.47c0.097,0.321 -0.058,0.665 -0.363,0.805c-4.218,1.86 -11.054,4.306 -18.171,4.473c-7.422,0.174 -11.475,-0.718 -17.641,-2.471c-5.01,-1.423 -10.064,-2.47 -15.371,-2.47c-3.516,0 -10.807,1.325 -15.327,2.22c-0.326,0.06 -0.647,-0.126 -0.758,-0.438c-0.111,-0.312 0.021,-0.659 0.312,-0.818c4.027,-2.186 10.958,-5.356 17.42,-5.356c-11.254,0 -21.341,-4.689 -30.261,-14.067c-8.921,-9.378 -13.381,-20.334 -13.381,-32.868c0,-12.946 4.46,-23.868 13.381,-32.766c8.92,-8.898 19.922,-13.346 33.006,-13.346Zm-2.745,6.862c-8.234,0.915 -15.462,5.077 -21.684,12.488c-5.581,6.634 -8.371,15.348 -8.371,26.144c-0,1.281 0.046,2.585 0.137,3.912c0.915,10.064 4.529,18.664 10.842,25.8c6.313,7.137 14.501,10.796 24.566,10.979c9.881,-0.731 17.475,-4.666 22.781,-11.802c4.986,-6.679 7.48,-15.988 7.48,-27.928c-0,-0.824 -0.023,-1.67 -0.069,-2.539c-0.915,-10.247 -4.666,-19.076 -11.254,-26.487c-6.267,-7.045 -13.952,-10.567 -23.056,-10.567l-1.372,-0Z" style="fill:#0d0d0d;fill-rule:nonzero;"/><ellipse cx="561.608" cy="369.39" rx="39.766" ry="39.226" style="fill:#0d0d0d;"/></g><g id="ojos"><path d="M444.487,312.989c-0.142,0.317 -0.504,0.472 -0.832,0.356c-0.328,-0.117 -0.511,-0.466 -0.42,-0.802c4.06,-15.149 17.895,-26.318 34.318,-26.318c16.423,0 30.258,11.169 34.317,26.319c0.09,0.335 -0.093,0.682 -0.42,0.798c-0.326,0.117 -0.687,-0.037 -0.83,-0.354c-5.371,-12 -18.208,-20.723 -33.067,-20.723c-14.859,-0 -27.696,8.723 -33.066,20.724Z" style="fill:#0d0d0d;"/><path d="M670.581,312.989c0.142,0.317 0.504,0.472 0.832,0.356c0.327,-0.117 0.51,-0.466 0.42,-0.802c-4.061,-15.149 -17.896,-26.318 -34.319,-26.318c-16.423,0 -30.258,11.169 -34.317,26.319c-0.089,0.335 0.094,0.682 0.42,0.798c0.327,0.117 0.688,-0.037 0.83,-0.354c5.371,-12 18.209,-20.723 33.067,-20.723c14.859,-0 27.697,8.723 33.067,20.724Z" style="fill:#0d0d0d;"/></g></g></g></svg>