<svg id="TEXT" xmlns="http://www.w3.org/2000/svg" width="83.823" height="173.15" viewBox="0 0 83.823 173.15">
  <path id="Path_743" data-name="Path 743" d="M540.038,314.41v-2.018a3.41,3.41,0,0,1,2.934-3.376,6.66,6.66,0,0,0,2.844-.926,4.3,4.3,0,0,0,1.6-3.811V238.549a2.019,2.019,0,0,0-2.018-2.018H530.2c-1.31,0-3.411,1.035-5.445,2.457a3.071,3.071,0,0,1-4.8-2.813h-.007a7.866,7.866,0,0,1,7.832-7.137h51.842a7.847,7.847,0,0,1,7.812,7.1h0a3.037,3.037,0,0,1-4.681,2.833c-2.136-1.415-4.4-2.44-5.833-2.44H561.727a2.019,2.019,0,0,0-2.018,2.018v65.729a4.3,4.3,0,0,0,1.6,3.811,6.7,6.7,0,0,0,2.843.929,3.407,3.407,0,0,1,2.932,3.374c0,1.08,0,2.018,0,2.018H540.038Z" transform="translate(-512.296 -229.037)" fill="#fff"/>
  <path id="Path_744" data-name="Path 744" d="M552.962,319.919a40.371,40.371,0,0,1,29.476,12.233q12.325,12.232,12.325,29.076t-12.325,29.444q-12.325,12.6-27.017,12.6c5.409,0,7.636-.029,12.061.79s6.756,2.183,13.693,2.851a57.873,57.873,0,0,0,13.359-.43.6.6,0,0,1,.345,1.142,44.732,44.732,0,0,1-16.278,4.007,45.773,45.773,0,0,1-15.8-2.214,50.086,50.086,0,0,0-13.77-2.213c-3.15,0-9.681,1.187-13.73,1.989a.6.6,0,0,1-.4-1.125c3.608-1.958,9.817-4.8,15.606-4.8q-15.123,0-27.109-12.6a41.368,41.368,0,0,1-11.987-29.444q0-17.4,11.987-29.353t29.568-11.956Zm-2.459,6.147q-11.064,1.23-19.425,11.187-7.5,8.914-7.5,23.421,0,1.721.123,3.5a39.289,39.289,0,0,0,9.713,23.113q8.483,9.591,22.007,9.836,13.278-.982,20.408-10.573,6.7-8.975,6.7-25.019,0-1.107-.062-2.275a40.126,40.126,0,0,0-10.082-23.728,26.59,26.59,0,0,0-20.654-9.466Z" transform="translate(-511.407 -238.503)" fill="#fff"/>
  <ellipse id="Ellipse_1" data-name="Ellipse 1" cx="35.624" cy="35.14" rx="35.624" ry="35.14" transform="translate(9.348 90.593)" fill="#fff"/>
</svg>
