<?xml version="1.0" encoding="UTF-8" standalone="no"?><!DOCTYPE svg PUBLIC "-//W3C//DTD SVG 1.1//EN" "http://www.w3.org/Graphics/SVG/1.1/DTD/svg11.dtd"><svg width="100%" height="100%" viewBox="0 0 1080 1080" version="1.1" xmlns="http://www.w3.org/2000/svg" xmlns:xlink="http://www.w3.org/1999/xlink" xml:space="preserve" xmlns:serif="http://www.serif.com/" style="fill-rule:evenodd;clip-rule:evenodd;stroke-linejoin:round;stroke-miterlimit:2;"><rect id="Artboard11" x="0" y="0" width="1080" height="1080" style="fill:none;"/><g><path d="M279.37,611.072c-0.019,-0.038 -0.067,-0.076 -0.114,-0.095c-20.507,-20.412 -48.803,-33.034 -80.046,-33.072l-76.521,0c-30.011,0.019 -57.227,11.76 -77.497,30.741c-0.9,0.834 -1.848,1.611 -2.719,2.464c-0.228,0.237 -0.446,0.521 -0.673,0.758c-20.061,20.469 -32.466,48.547 -32.466,79.525l0,76.274c0,30.504 12.054,58.147 31.575,78.539c0.559,0.578 1.042,1.194 1.601,1.763c0.323,0.313 0.664,0.597 0.986,0.9c20.44,19.938 48.367,32.267 79.203,32.286l76.52,-0c30.012,-0.019 57.228,-11.76 77.507,-30.741c0.891,-0.834 1.838,-1.611 2.7,-2.464c0.228,-0.237 0.446,-0.521 0.673,-0.758c20.071,-20.469 32.466,-48.547 32.466,-79.525l-0,-76.274c-0,-30.163 -11.779,-57.474 -30.893,-77.8c-0.786,-0.825 -1.478,-1.716 -2.302,-2.521Z" style="fill:#fff;fill-rule:nonzero;"/><path d="M1037.47,611.072c-0.019,-0.038 -0.076,-0.076 -0.114,-0.095c-20.507,-20.412 -48.803,-33.034 -80.046,-33.072l-76.521,0c-30.011,0.019 -57.227,11.76 -77.497,30.741c-0.9,0.834 -1.848,1.611 -2.71,2.464c-0.237,0.237 -0.445,0.521 -0.682,0.758c-20.062,20.469 -32.466,48.547 -32.466,79.525l0,76.274c0,30.504 12.054,58.147 31.575,78.539c0.559,0.578 1.033,1.194 1.592,1.763c0.322,0.313 0.663,0.597 0.995,0.9c20.431,19.938 48.367,32.267 79.193,32.286l76.53,-0c30.002,-0.019 57.218,-11.76 77.507,-30.741c0.89,-0.834 1.838,-1.611 2.7,-2.464c0.228,-0.237 0.446,-0.521 0.673,-0.758c20.061,-20.469 32.466,-48.547 32.466,-79.525l-0,-76.274c-0,-30.163 -11.779,-57.474 -30.893,-77.8c-0.786,-0.825 -1.487,-1.716 -2.302,-2.521Z" style="fill:#fff;fill-rule:nonzero;"/><path d="M658.42,611.072c-0.019,-0.038 -0.076,-0.076 -0.114,-0.095c-20.506,-20.412 -48.802,-33.034 -80.046,-33.072l-76.52,0c-30.012,0.019 -57.228,11.76 -77.497,30.741c-0.901,0.834 -1.848,1.611 -2.72,2.464c-0.227,0.237 -0.445,0.521 -0.673,0.758c-20.061,20.469 -32.465,48.547 -32.465,79.525l-0,76.274c-0,30.504 12.053,58.147 31.574,78.539c0.56,0.578 1.043,1.194 1.602,1.763c0.322,0.313 0.663,0.597 0.985,0.9c20.441,19.938 48.367,32.267 79.203,32.286l76.53,-0c30.002,-0.019 57.218,-11.76 77.507,-30.741c0.89,-0.834 1.838,-1.611 2.7,-2.464c0.228,-0.237 0.446,-0.521 0.673,-0.758c20.061,-20.469 32.466,-48.547 32.466,-79.525l-0,-76.274c-0,-30.163 -11.779,-57.474 -30.893,-77.8c-0.796,-0.825 -1.497,-1.716 -2.312,-2.521Z" style="fill:#fff;fill-rule:nonzero;"/></g><g><path d="M279.37,232.012c-0.019,-0.038 -0.067,-0.076 -0.114,-0.095c-20.507,-20.412 -48.803,-33.034 -80.046,-33.072l-76.521,0c-30.011,0.019 -57.227,11.76 -77.497,30.741c-0.9,0.834 -1.848,1.611 -2.719,2.464c-0.228,0.237 -0.446,0.521 -0.673,0.758c-20.061,20.469 -32.466,48.547 -32.466,79.525l0,76.274c0,30.504 12.054,58.147 31.575,78.54c0.559,0.578 1.042,1.194 1.601,1.762c0.323,0.313 0.664,0.597 0.986,0.9c20.44,19.938 48.367,32.267 79.203,32.286l76.52,-0c30.012,-0.019 57.228,-11.76 77.507,-30.741c0.891,-0.834 1.838,-1.611 2.7,-2.464c0.228,-0.237 0.446,-0.521 0.673,-0.758c20.071,-20.469 32.466,-48.547 32.466,-79.525l-0,-76.274c-0,-30.163 -11.779,-57.474 -30.893,-77.8c-0.786,-0.825 -1.478,-1.715 -2.302,-2.521Z" style="fill:#fff;fill-rule:nonzero;"/><path d="M1037.47,232.012c-0.019,-0.038 -0.076,-0.076 -0.114,-0.095c-20.507,-20.412 -48.803,-33.034 -80.046,-33.072l-76.521,0c-30.011,0.019 -57.227,11.76 -77.497,30.741c-0.9,0.834 -1.848,1.611 -2.71,2.464c-0.237,0.237 -0.445,0.521 -0.682,0.758c-20.062,20.469 -32.466,48.547 -32.466,79.525l0,76.274c0,30.504 12.054,58.147 31.575,78.54c0.559,0.578 1.033,1.194 1.592,1.762c0.322,0.313 0.663,0.597 0.995,0.9c20.431,19.938 48.367,32.267 79.193,32.286l76.53,-0c30.002,-0.019 57.218,-11.76 77.507,-30.741c0.89,-0.834 1.838,-1.611 2.7,-2.464c0.228,-0.237 0.446,-0.521 0.673,-0.758c20.061,-20.469 32.466,-48.547 32.466,-79.525l-0,-76.274c-0,-30.163 -11.779,-57.474 -30.893,-77.8c-0.786,-0.825 -1.487,-1.715 -2.302,-2.521Z" style="fill:#fff;fill-rule:nonzero;"/><path d="M658.42,232.012c-0.019,-0.038 -0.076,-0.076 -0.114,-0.095c-20.506,-20.412 -48.802,-33.034 -80.046,-33.072l-76.52,0c-30.012,0.019 -57.228,11.76 -77.497,30.741c-0.901,0.834 -1.848,1.611 -2.72,2.464c-0.227,0.237 -0.445,0.521 -0.673,0.758c-20.061,20.469 -32.465,48.547 -32.465,79.525l-0,76.274c-0,30.504 12.053,58.147 31.574,78.54c0.56,0.578 1.043,1.194 1.602,1.762c0.322,0.313 0.663,0.597 0.985,0.9c20.441,19.938 48.367,32.267 79.203,32.286l76.53,-0c30.002,-0.019 57.218,-11.76 77.507,-30.741c0.89,-0.834 1.838,-1.611 2.7,-2.464c0.228,-0.237 0.446,-0.521 0.673,-0.758c20.061,-20.469 32.466,-48.547 32.466,-79.525l-0,-76.274c-0,-30.163 -11.779,-57.474 -30.893,-77.8c-0.796,-0.825 -1.497,-1.715 -2.312,-2.521Z" style="fill:#fff;fill-rule:nonzero;"/></g></svg>